<?xml version="1.0" encoding="UTF-8" standalone="no"?>
<svg
   xmlns:dc="http://purl.org/dc/elements/1.1/"
   xmlns:cc="http://creativecommons.org/ns#"
   xmlns:rdf="http://www.w3.org/1999/02/22-rdf-syntax-ns#"
   xmlns:svg="http://www.w3.org/2000/svg"
   xmlns="http://www.w3.org/2000/svg"
   xmlns:sodipodi="http://sodipodi.sourceforge.net/DTD/sodipodi-0.dtd"
   xmlns:inkscape="http://www.inkscape.org/namespaces/inkscape"
   id="Capa_1"
   version="1.1"
   viewBox="0 0 64 64"
   xml:space="preserve"
   inkscape:version="0.91 r13725"
   sodipodi:docname="picto_offre.svg"
   width="64"
   height="64"><metadata
     id="metadata39"><rdf:RDF><cc:Work
         rdf:about=""><dc:format>image/svg+xml</dc:format><dc:type
           rdf:resource="http://purl.org/dc/dcmitype/StillImage" /><dc:title></dc:title></cc:Work></rdf:RDF></metadata><defs
     id="defs37" /><sodipodi:namedview
     pagecolor="#ffffff"
     bordercolor="#666666"
     borderopacity="1"
     objecttolerance="10"
     gridtolerance="10"
     guidetolerance="10"
     inkscape:pageopacity="0"
     inkscape:pageshadow="2"
     inkscape:window-width="1164"
     inkscape:window-height="804"
     id="namedview35"
     showgrid="false"
     inkscape:zoom="4.72"
     inkscape:cx="58.084431"
     inkscape:cy="37.198238"
     inkscape:window-x="10"
     inkscape:window-y="34"
     inkscape:window-maximized="0"
     inkscape:current-layer="Capa_1" /><path
     d="m 48.83371,46.166102 -34.550472,0 c -0.532408,0 -0.95273,-0.420322 -0.95273,-0.95273 l 0,-23.678143 c 0,-0.532408 0.420322,-0.952729 0.95273,-0.952729 l 34.550472,0 c 0.532408,0 0.952731,0.420321 0.952731,0.952729 l 0,23.650122 c 0,0.532407 -0.420323,0.980751 -0.952731,0.980751 z m -33.597742,-1.933481 32.616991,0 0,-21.71664 -32.616991,0 0,21.71664 z"
     id="path3"
     inkscape:connector-curvature="0" /><path
     d="m 24.819311,35.770136 -7.173497,0 c -0.252193,0 -0.476365,-0.224171 -0.476365,-0.476365 l 0,-8.574569 c 0,-0.252194 0.224172,-0.476365 0.476365,-0.476365 l 7.173497,0 c 0.252193,0 0.476365,0.224171 0.476365,0.476365 l 0,8.602591 c 0,0.252193 -0.224172,0.448343 -0.476365,0.448343 z m -6.697132,-0.95273 6.220766,0 0,-7.621839 -6.220766,0 0,7.621839 z"
     id="path5"
     inkscape:connector-curvature="0" /><path
     d="m 31.544463,27.44776 -4.063113,0 c -0.252193,0 -0.476365,-0.224172 -0.476365,-0.476365 0,-0.252193 0.224172,-0.476365 0.476365,-0.476365 l 4.063113,0 c 0.252194,0 0.476365,0.224172 0.476365,0.476365 0,0.252193 -0.19615,0.476365 -0.476365,0.476365 z"
     id="path7"
     inkscape:connector-curvature="0" /><path
     d="m 43.929953,29.101027 -16.448603,0 c -0.252193,0 -0.476365,-0.224172 -0.476365,-0.476365 0,-0.252194 0.224172,-0.476365 0.476365,-0.476365 l 16.448603,0 c 0.252193,0 0.476365,0.224171 0.476365,0.476365 0,0.252193 -0.19615,0.476365 -0.476365,0.476365 z"
     id="path9"
     inkscape:connector-curvature="0" /><path
     d="m 33.730138,30.754293 -6.248788,0 c -0.252193,0 -0.476365,-0.224171 -0.476365,-0.476365 0,-0.252193 0.224172,-0.476365 0.476365,-0.476365 l 6.248788,0 c 0.252193,0 0.476365,0.224172 0.476365,0.476365 0,0.252194 -0.19615,0.476365 -0.476365,0.476365 z"
     id="path11"
     inkscape:connector-curvature="0" /><path
     d="m 39.026196,32.40756 -11.544846,0 c -0.252193,0 -0.476365,-0.224172 -0.476365,-0.476365 0,-0.252193 0.224172,-0.476365 0.476365,-0.476365 l 11.516825,0 c 0.252193,0 0.476364,0.224172 0.476364,0.476365 0,0.252193 -0.19615,0.476365 -0.448343,0.476365 z"
     id="path13"
     inkscape:connector-curvature="0" /><path
     d="m 31.544463,34.088848 -4.063113,0 c -0.252193,0 -0.476365,-0.224172 -0.476365,-0.476365 0,-0.252193 0.224172,-0.476365 0.476365,-0.476365 l 4.063113,0 c 0.252194,0 0.476365,0.224172 0.476365,0.476365 0,0.252193 -0.19615,0.476365 -0.476365,0.476365 z"
     id="path15"
     inkscape:connector-curvature="0" /><path
     d="m 43.929953,35.742115 -16.448603,0 c -0.252193,0 -0.476365,-0.224172 -0.476365,-0.476365 0,-0.252193 0.224172,-0.476365 0.476365,-0.476365 l 16.448603,0 c 0.252193,0 0.476365,0.224172 0.476365,0.476365 0,0.252193 -0.19615,0.476365 -0.476365,0.476365 z"
     id="path17"
     inkscape:connector-curvature="0" /><path
     d="m 33.730138,37.395382 -6.248788,0 c -0.252193,0 -0.476365,-0.224172 -0.476365,-0.476365 0,-0.252194 0.224172,-0.476365 0.476365,-0.476365 l 6.248788,0 c 0.252193,0 0.476365,0.224171 0.476365,0.476365 0,0.252193 -0.19615,0.476365 -0.476365,0.476365 z"
     id="path19"
     inkscape:connector-curvature="0" /><path
     d="m 39.026196,39.048649 -11.544846,0 c -0.252193,0 -0.476365,-0.224172 -0.476365,-0.476365 0,-0.252194 0.224172,-0.476365 0.476365,-0.476365 l 11.516825,0 c 0.252193,0 0.476364,0.224171 0.476364,0.476365 0.02802,0.280214 -0.19615,0.476365 -0.448343,0.476365 z"
     id="path21"
     inkscape:connector-curvature="0" /><path
     d="m 24.819311,37.395382 -7.173497,0 c -0.252193,0 -0.476365,-0.224172 -0.476365,-0.476365 0,-0.252194 0.224172,-0.476365 0.476365,-0.476365 l 7.173497,0 c 0.252193,0 0.476365,0.224171 0.476365,0.476365 0,0.252193 -0.224172,0.476365 -0.476365,0.476365 z"
     id="path23"
     inkscape:connector-curvature="0" /><path
     d="m 24.819311,39.048649 -7.173497,0 c -0.252193,0 -0.476365,-0.224172 -0.476365,-0.476365 0,-0.252194 0.224172,-0.476365 0.476365,-0.476365 l 7.173497,0 c 0.252193,0 0.476365,0.224171 0.476365,0.476365 0,0.280214 -0.224172,0.476365 -0.476365,0.476365 z"
     id="path25"
     inkscape:connector-curvature="0" /><path
     d="m 33.618052,25.178021 -4.203221,0 c -0.532408,0 -0.952729,-0.420322 -0.952729,-0.95273 0,-0.532408 0.420321,-0.95273 0.952729,-0.95273 l 4.203221,0 c 0.532408,0 0.95273,0.420322 0.95273,0.95273 0,0.504386 -0.420322,0.95273 -0.95273,0.95273 z"
     id="path27"
     inkscape:connector-curvature="0" /><path
     d="m 31.544463,22.011595 c -0.252193,0 -0.476364,-0.224172 -0.476364,-0.476366 l 0,-2.353803 c 0,-0.252193 0.224171,-0.476365 0.476364,-0.476365 0.252194,0 0.476365,0.224172 0.476365,0.476365 l 0,2.353803 c 0,0.280215 -0.19615,0.476366 -0.476365,0.476366 z"
     id="path29"
     inkscape:connector-curvature="0" /><path
     d="m 33.421902,19.657791 -3.726856,0 c -0.252193,0 -0.476364,-0.224171 -0.476364,-0.476365 l 0,-5.408143 c 0,-0.252193 0.224171,-0.476365 0.476364,-0.476365 l 3.726856,0 c 0.252193,0 0.476365,0.224172 0.476365,0.476365 l 0,5.408143 c 0,0.280215 -0.224172,0.476365 -0.476365,0.476365 z m -3.25049,-0.95273 2.774125,0 0,-4.455413 -2.774125,0 0,4.455413 z"
     id="path31"
     inkscape:connector-curvature="0" /><path
     d="m 32.132914,15.734786 -1.176902,0 c -0.252193,0 -0.476365,-0.224172 -0.476365,-0.476365 0,-0.252193 0.224172,-0.476365 0.476365,-0.476365 l 1.176902,0 c 0.252193,0 0.476365,0.224172 0.476365,0.476365 0,0.252193 -0.19615,0.476365 -0.476365,0.476365 z"
     id="path33"
     inkscape:connector-curvature="0" /></svg>