<?xml version="1.0" encoding="UTF-8" standalone="no"?>
<svg
   xmlns:dc="http://purl.org/dc/elements/1.1/"
   xmlns:cc="http://creativecommons.org/ns#"
   xmlns:rdf="http://www.w3.org/1999/02/22-rdf-syntax-ns#"
   xmlns:svg="http://www.w3.org/2000/svg"
   xmlns="http://www.w3.org/2000/svg"
   xmlns:sodipodi="http://sodipodi.sourceforge.net/DTD/sodipodi-0.dtd"
   xmlns:inkscape="http://www.inkscape.org/namespaces/inkscape"
   enable-background="new 0 0 32 32"
   height="64"
   id="Layer_1"
   version="1.1"
   viewBox="0 0 64 64"
   width="64"
   xml:space="preserve"
   inkscape:version="0.91 r13725"
   sodipodi:docname="picto_article.svg"><metadata
     id="metadata104"><rdf:RDF><cc:Work
         rdf:about=""><dc:format>image/svg+xml</dc:format><dc:type
           rdf:resource="http://purl.org/dc/dcmitype/StillImage" /><dc:title></dc:title></cc:Work></rdf:RDF></metadata><defs
     id="defs102" /><sodipodi:namedview
     pagecolor="#ffffff"
     bordercolor="#666666"
     borderopacity="1"
     objecttolerance="10"
     gridtolerance="10"
     guidetolerance="10"
     inkscape:pageopacity="0"
     inkscape:pageshadow="2"
     inkscape:window-width="1040"
     inkscape:window-height="698"
     id="namedview100"
     showgrid="false"
     inkscape:zoom="3.6875"
     inkscape:cx="23.357439"
     inkscape:cy="22.949974"
     inkscape:window-x="10"
     inkscape:window-y="34"
     inkscape:window-maximized="0"
     inkscape:current-layer="Layer_1" /><g
     id="News__x26__Events_1_"
     transform="matrix(1.5242938,0,0,1.5242938,7.0689265,8.4067792)"><path
       d="M 5.5,28 C 4.122,28 3,26.879 3,25.5 l 0,-14 C 3,11.224 3.224,11 3.5,11 l 2,0 C 5.776,11 6,11.224 6,11.5 6,11.776 5.776,12 5.5,12 L 4,12 4,25.5 C 4,26.327 4.673,27 5.5,27 5.776,27 6,27.224 6,27.5 6,27.776 5.776,28 5.5,28 Z"
       id="path4"
       inkscape:connector-curvature="0"
       style="fill:#263238" /><path
       d="M 5.5,28 C 5.224,28 5,27.776 5,27.5 5,27.224 5.224,27 5.5,27 6.327,27 7,26.327 7,25.5 L 7,3.5 C 7,3.224 7.224,3 7.5,3 7.776,3 8,3.224 8,3.5 l 0,22 C 8,26.879 6.878,28 5.5,28 Z"
       id="path6"
       inkscape:connector-curvature="0"
       style="fill:#263238" /><path
       d="M 5.5,30 C 3.019,30 1,27.981 1,25.5 l 0,-13 C 1,12.224 1.224,12 1.5,12 1.776,12 2,12.224 2,12.5 l 0,13 C 2,27.43 3.57,29 5.5,29 5.776,29 6,29.224 6,29.5 6,29.776 5.776,30 5.5,30 Z"
       id="path8"
       inkscape:connector-curvature="0"
       style="fill:#263238" /><path
       d="m 26.5,30 -21,0 C 5.224,30 5,29.776 5,29.5 5,29.224 5.224,29 5.5,29 7.43,29 9,27.43 9,25.5 L 9,2.5 C 9,2.224 9.224,2 9.5,2 l 21,0 C 30.776,2 31,2.224 31,2.5 l 0,23 C 31,27.981 28.981,30 26.5,30 Z M 8.326,29 26.5,29 C 28.43,29 30,27.43 30,25.5 L 30,3 10,3 10,25.5 c 0,1.412 -0.654,2.675 -1.674,3.5 z"
       id="path10"
       inkscape:connector-curvature="0"
       style="fill:#263238" /><g
       id="g12"><path
         d="M 23.998,10 C 23.791,10 23.603,9.872 23.53,9.676 l -1.5,-4 c -0.097,-0.259 0.034,-0.547 0.292,-0.644 0.258,-0.101 0.547,0.033 0.644,0.292 l 0.885,2.361 0.457,-2.284 c 0.054,-0.271 0.318,-0.449 0.588,-0.392 0.271,0.054 0.446,0.317 0.392,0.589 l -0.801,4 C 24.443,9.817 24.259,9.98 24.037,9.997 24.025,9.999 24.011,10 23.998,10 Z"
         id="path14"
         inkscape:connector-curvature="0"
         style="fill:#263238" /><path
         d="M 20.998,10 C 20.985,10 20.971,9.999 20.957,9.998 20.734,9.98 20.551,9.816 20.507,9.598 l -0.797,-4 c -0.054,-0.271 0.122,-0.534 0.393,-0.588 0.27,-0.057 0.534,0.121 0.588,0.393 l 0.454,2.28 0.884,-2.358 c 0.097,-0.259 0.385,-0.393 0.644,-0.292 0.258,0.097 0.389,0.385 0.292,0.644 l -1.5,4 C 21.393,9.872 21.205,10 20.998,10 Z"
         id="path16"
         inkscape:connector-curvature="0"
         style="fill:#263238" /><path
         d="M 14.5,10 C 14.337,10 14.18,9.92 14.085,9.779 L 12,6.689 12,9.5 C 12,9.776 11.776,10 11.5,10 11.224,10 11,9.776 11,9.5 l 0,-4 C 11,5.224 11.224,5 11.5,5 l 0.301,0 c 0.166,0 0.321,0.083 0.415,0.221 L 14,7.865 14,5.5 C 14,5.224 14.224,5 14.5,5 14.776,5 15,5.224 15,5.5 l 0,4 C 15,9.72 14.856,9.914 14.646,9.979 14.598,9.993 14.549,10 14.5,10 Z"
         id="path18"
         inkscape:connector-curvature="0"
         style="fill:#263238" /><path
         d="m 18.5,10 -2,0 C 16.224,10 16,9.776 16,9.5 l 0,-4 C 16,5.224 16.224,5 16.5,5 l 2,0 C 18.776,5 19,5.224 19,5.5 19,5.776 18.776,6 18.5,6 L 17,6 17,9 18.5,9 C 18.776,9 19,9.224 19,9.5 19,9.776 18.776,10 18.5,10 Z"
         id="path20"
         inkscape:connector-curvature="0"
         style="fill:#263238" /><g
         id="g22"><path
           d="M 18,8 16.5,8 C 16.224,8 16,7.776 16,7.5 16,7.224 16.224,7 16.5,7 L 18,7 c 0.276,0 0.5,0.224 0.5,0.5 C 18.5,7.776 18.276,8 18,8 Z"
           id="path24"
           inkscape:connector-curvature="0"
           style="fill:#263238" /></g><path
         d="M 27.5,10 C 26.673,10 25.995,9.531 25.687,8.745 25.586,8.488 25.713,8.198 25.97,8.097 26.226,7.997 26.518,8.122 26.618,8.38 26.729,8.663 26.972,9 27.5,9 27.861,9 28.029,8.66 28.029,8.43 28.029,8.232 27.857,8.117 27.341,7.875 27.011,7.721 26.638,7.545 26.376,7.246 26.018,6.838 25.921,6.245 26.137,5.768 26.358,5.28 26.842,5 27.465,5 c 0.801,0 1.223,0.451 1.269,0.502 0.183,0.207 0.164,0.523 -0.042,0.706 C 28.488,6.39 28.178,6.374 27.994,6.175 27.976,6.158 27.804,6 27.465,6 c -0.153,0 -0.349,0.031 -0.417,0.181 -0.055,0.121 -0.021,0.291 0.079,0.405 0.125,0.143 0.387,0.266 0.639,0.384 0.533,0.251 1.263,0.593 1.263,1.46 0,0.755 -0.584,1.57 -1.529,1.57 z"
         id="path26"
         inkscape:connector-curvature="0"
         style="fill:#263238" /></g><g
       id="g28"><g
         id="g30"><g
           id="g32"><path
             d="m 27.5,26 -6,0 C 21.224,26 21,25.776 21,25.5 21,25.224 21.224,25 21.5,25 l 6,0 c 0.276,0 0.5,0.224 0.5,0.5 0,0.276 -0.224,0.5 -0.5,0.5 z"
             id="path34"
             inkscape:connector-curvature="0"
             style="fill:#263238" /></g><g
           id="g36"><path
             d="m 18.5,26 -6,0 C 12.224,26 12,25.776 12,25.5 12,25.224 12.224,25 12.5,25 l 6,0 c 0.276,0 0.5,0.224 0.5,0.5 0,0.276 -0.224,0.5 -0.5,0.5 z"
             id="path38"
             inkscape:connector-curvature="0"
             style="fill:#263238" /></g></g><g
         id="g40"><g
           id="g42"><path
             d="m 27.5,24 -6,0 C 21.224,24 21,23.776 21,23.5 21,23.224 21.224,23 21.5,23 l 6,0 c 0.276,0 0.5,0.224 0.5,0.5 0,0.276 -0.224,0.5 -0.5,0.5 z"
             id="path44"
             inkscape:connector-curvature="0"
             style="fill:#263238" /></g><g
           id="g46"><path
             d="m 18.5,24 -6,0 C 12.224,24 12,23.776 12,23.5 12,23.224 12.224,23 12.5,23 l 6,0 c 0.276,0 0.5,0.224 0.5,0.5 0,0.276 -0.224,0.5 -0.5,0.5 z"
             id="path48"
             inkscape:connector-curvature="0"
             style="fill:#263238" /></g></g><g
         id="g50"><g
           id="g52"><path
             d="m 27.5,22 -6,0 C 21.224,22 21,21.776 21,21.5 21,21.224 21.224,21 21.5,21 l 6,0 c 0.276,0 0.5,0.224 0.5,0.5 0,0.276 -0.224,0.5 -0.5,0.5 z"
             id="path54"
             inkscape:connector-curvature="0"
             style="fill:#263238" /></g><g
           id="g56"><path
             d="m 18.5,22 -6,0 C 12.224,22 12,21.776 12,21.5 12,21.224 12.224,21 12.5,21 l 6,0 c 0.276,0 0.5,0.224 0.5,0.5 0,0.276 -0.224,0.5 -0.5,0.5 z"
             id="path58"
             inkscape:connector-curvature="0"
             style="fill:#263238" /></g></g><g
         id="g60"><g
           id="g62"><path
             d="m 27.5,20 -6,0 C 21.224,20 21,19.776 21,19.5 21,19.224 21.224,19 21.5,19 l 6,0 c 0.276,0 0.5,0.224 0.5,0.5 0,0.276 -0.224,0.5 -0.5,0.5 z"
             id="path64"
             inkscape:connector-curvature="0"
             style="fill:#263238" /></g><g
           id="g66"><path
             d="m 18.5,20 -6,0 C 12.224,20 12,19.776 12,19.5 12,19.224 12.224,19 12.5,19 l 6,0 c 0.276,0 0.5,0.224 0.5,0.5 0,0.276 -0.224,0.5 -0.5,0.5 z"
             id="path68"
             inkscape:connector-curvature="0"
             style="fill:#263238" /></g></g><g
         id="g70"><g
           id="g72"><path
             d="m 27.5,18 -6,0 C 21.224,18 21,17.776 21,17.5 21,17.224 21.224,17 21.5,17 l 6,0 c 0.276,0 0.5,0.224 0.5,0.5 0,0.276 -0.224,0.5 -0.5,0.5 z"
             id="path74"
             inkscape:connector-curvature="0"
             style="fill:#263238" /></g><g
           id="g76"><path
             d="m 18.5,18 -6,0 C 12.224,18 12,17.776 12,17.5 12,17.224 12.224,17 12.5,17 l 6,0 c 0.276,0 0.5,0.224 0.5,0.5 0,0.276 -0.224,0.5 -0.5,0.5 z"
             id="path78"
             inkscape:connector-curvature="0"
             style="fill:#263238" /></g></g><g
         id="g80"><g
           id="g82"><path
             d="m 27.5,16 -6,0 C 21.224,16 21,15.776 21,15.5 21,15.224 21.224,15 21.5,15 l 6,0 c 0.276,0 0.5,0.224 0.5,0.5 0,0.276 -0.224,0.5 -0.5,0.5 z"
             id="path84"
             inkscape:connector-curvature="0"
             style="fill:#263238" /></g><g
           id="g86"><path
             d="m 18.5,16 -6,0 C 12.224,16 12,15.776 12,15.5 12,15.224 12.224,15 12.5,15 l 6,0 c 0.276,0 0.5,0.224 0.5,0.5 0,0.276 -0.224,0.5 -0.5,0.5 z"
             id="path88"
             inkscape:connector-curvature="0"
             style="fill:#263238" /></g></g><g
         id="g90"><g
           id="g92"><path
             d="m 27.5,14 -6,0 C 21.224,14 21,13.776 21,13.5 21,13.224 21.224,13 21.5,13 l 6,0 c 0.276,0 0.5,0.224 0.5,0.5 0,0.276 -0.224,0.5 -0.5,0.5 z"
             id="path94"
             inkscape:connector-curvature="0"
             style="fill:#263238" /></g><g
           id="g96"><path
             d="m 18.5,14 -6,0 C 12.224,14 12,13.776 12,13.5 12,13.224 12.224,13 12.5,13 l 6,0 c 0.276,0 0.5,0.224 0.5,0.5 0,0.276 -0.224,0.5 -0.5,0.5 z"
             id="path98"
             inkscape:connector-curvature="0"
             style="fill:#263238" /></g></g></g></g></svg>