<?xml version="1.0" encoding="UTF-8" standalone="no"?>
<svg
   xmlns:dc="http://purl.org/dc/elements/1.1/"
   xmlns:cc="http://creativecommons.org/ns#"
   xmlns:rdf="http://www.w3.org/1999/02/22-rdf-syntax-ns#"
   xmlns:svg="http://www.w3.org/2000/svg"
   xmlns="http://www.w3.org/2000/svg"
   xmlns:sodipodi="http://sodipodi.sourceforge.net/DTD/sodipodi-0.dtd"
   xmlns:inkscape="http://www.inkscape.org/namespaces/inkscape"
   height="64"
   version="1.1"
   viewBox="0 0 64 64"
   width="64"
   id="svg2"
   inkscape:version="0.91 r13725"
   sodipodi:docname="picto_temoignage.svg">
  <metadata
     id="metadata16">
    <rdf:RDF>
      <cc:Work
         rdf:about="">
        <dc:format>image/svg+xml</dc:format>
        <dc:type
           rdf:resource="http://purl.org/dc/dcmitype/StillImage" />
        <dc:title></dc:title>
      </cc:Work>
    </rdf:RDF>
  </metadata>
  <sodipodi:namedview
     pagecolor="#ffffff"
     bordercolor="#666666"
     borderopacity="1"
     objecttolerance="10"
     gridtolerance="10"
     guidetolerance="10"
     inkscape:pageopacity="0"
     inkscape:pageshadow="2"
     inkscape:window-width="1071"
     inkscape:window-height="599"
     id="namedview14"
     showgrid="false"
     inkscape:zoom="2.95"
     inkscape:cx="57.476395"
     inkscape:cy="74.062362"
     inkscape:window-x="10"
     inkscape:window-y="34"
     inkscape:window-maximized="0"
     inkscape:current-layer="Page-1" />
  <desc
     id="desc6" />
  <defs
     id="defs8" />
  <g
     id="Page-1"
     style="fill:none;fill-rule:evenodd;stroke:none;stroke-width:1"
     transform="matrix(3.2052144,0,0,3.1812446,0,0.37510709)">
    <g
       id="Icons-Communication"
       transform="matrix(0.6827204,0,0,0.68529241,-25.607221,-24.762522)"
       style="fill:#000000">
      <g
         id="chat"
         transform="translate(42,41)">
        <path
           d="M 18,0 2,0 C 0.9,0 0,0.9 0,2 l 0,18 4,-4 14,0 c 1.1,0 2,-0.9 2,-2 L 20,2 C 20,0.9 19.1,0 18,0 l 0,0 z M 4,7 16,7 16,9 4,9 4,7 4,7 Z m 8,5 -8,0 0,-2 8,0 0,2 0,0 z M 16,6 4,6 4,4 l 12,0 0,2 0,0 z"
           id="Shape"
           inkscape:connector-curvature="0" />
      </g>
    </g>
  </g>
</svg>
