<?xml version="1.0" encoding="UTF-8" standalone="no"?>
<svg
   xmlns:dc="http://purl.org/dc/elements/1.1/"
   xmlns:cc="http://creativecommons.org/ns#"
   xmlns:rdf="http://www.w3.org/1999/02/22-rdf-syntax-ns#"
   xmlns:svg="http://www.w3.org/2000/svg"
   xmlns="http://www.w3.org/2000/svg"
   xmlns:sodipodi="http://sodipodi.sourceforge.net/DTD/sodipodi-0.dtd"
   xmlns:inkscape="http://www.inkscape.org/namespaces/inkscape"
   enable-background="new 0 0 32 32"
   height="64"
   id="Layer_1"
   version="1.1"
   viewBox="0 0 64 64"
   width="64"
   xml:space="preserve"
   inkscape:version="0.91 r13725"
   sodipodi:docname="picto_maps.svg"><metadata
     id="metadata12"><rdf:RDF><cc:Work
         rdf:about=""><dc:format>image/svg+xml</dc:format><dc:type
           rdf:resource="http://purl.org/dc/dcmitype/StillImage" /><dc:title></dc:title></cc:Work></rdf:RDF></metadata><defs
     id="defs10" /><sodipodi:namedview
     pagecolor="#ffffff"
     bordercolor="#666666"
     borderopacity="1"
     objecttolerance="10"
     gridtolerance="10"
     guidetolerance="10"
     inkscape:pageopacity="0"
     inkscape:pageshadow="2"
     inkscape:window-width="1673"
     inkscape:window-height="829"
     id="namedview8"
     showgrid="false"
     inkscape:zoom="3.6875"
     inkscape:cx="1.3405336"
     inkscape:cy="29.458283"
     inkscape:window-x="10"
     inkscape:window-y="34"
     inkscape:window-maximized="0"
     inkscape:current-layer="Layer_1" /><g
     id="location"
     transform="matrix(1.4971902,0,0,1.4971902,6.6892053,6.869575)"><path
       d="m 16.002,17.746 c 3.309,0 6,-2.692 6,-6 0,-3.308 -2.691,-6 -6,-6 -3.309,0 -6,2.691 -6,6 0,3.309 2.691,6 6,6 z m 0,-11 c 2.758,0 5,2.242 5,5 0,2.758 -2.242,5 -5,5 -2.758,0 -5,-2.242 -5,-5 0,-2.758 2.242,-5 5,-5 z"
       id="path4"
       inkscape:connector-curvature="0"
       style="clip-rule:evenodd;fill:#333333;fill-rule:evenodd" /><path
       d="M 16,0 C 9.382,0 4,5.316 4,12.001 c 0,7 6.001,14.161 10.376,19.194 0.016,0.02 0.718,0.805 1.586,0.805 0.002,0 0.073,0 0.077,0 0.867,0 1.57,-0.785 1.586,-0.805 C 22.002,26.162 28.002,19.002 28.002,12.001 28.002,5.316 22.619,0 16,0 Z m 0.117,29.883 c -0.021,0.02 -0.082,0.064 -0.135,0.098 -0.01,-0.027 -0.084,-0.086 -0.129,-0.133 C 12.188,25.631 6,18.514 6,12.001 6,6.487 10.487,2 16,2 c 5.516,0 10.002,4.487 10.002,10.002 0,6.512 -6.188,13.629 -9.885,17.881 z"
       id="path6"
       inkscape:connector-curvature="0"
       style="clip-rule:evenodd;fill:#333333;fill-rule:evenodd" /></g></svg>