<?xml version="1.0" encoding="UTF-8" standalone="no"?>
<!-- Generator: Adobe Illustrator 15.0.0, SVG Export Plug-In  -->

<svg
   xmlns:dc="http://purl.org/dc/elements/1.1/"
   xmlns:cc="http://creativecommons.org/ns#"
   xmlns:rdf="http://www.w3.org/1999/02/22-rdf-syntax-ns#"
   xmlns:svg="http://www.w3.org/2000/svg"
   xmlns="http://www.w3.org/2000/svg"
   xmlns:sodipodi="http://sodipodi.sourceforge.net/DTD/sodipodi-0.dtd"
   xmlns:inkscape="http://www.inkscape.org/namespaces/inkscape"
   version="1.1"
   x="0px"
   y="0px"
   width="580"
   height="690"
   viewBox="-0.376 -0.985 580 690"
   enable-background="new -0.376 -0.985 495 544"
   xml:space="preserve"
   id="svg2"
   inkscape:version="0.91 r13725"
   sodipodi:docname="france-new-regions.svg"><metadata
     id="metadata1030"><rdf:RDF><cc:Work
         rdf:about=""><dc:format>image/svg+xml</dc:format><dc:type
           rdf:resource="http://purl.org/dc/dcmitype/StillImage" /><dc:title></dc:title></cc:Work></rdf:RDF></metadata><defs
     id="defs4" /><sodipodi:namedview
     pagecolor="#ffffff"
     bordercolor="#666666"
     borderopacity="1"
     objecttolerance="10"
     gridtolerance="10"
     guidetolerance="10"
     inkscape:pageopacity="0"
     inkscape:pageshadow="2"
     inkscape:window-width="1920"
     inkscape:window-height="1056"
     id="namedview1028"
     showgrid="false"
     inkscape:zoom="0.41154163"
     inkscape:cx="786.00975"
     inkscape:cy="394.99799"
     inkscape:window-x="1920"
     inkscape:window-y="24"
     inkscape:window-maximized="1"
     inkscape:current-layer="svg2" /><defs
     id="defs6" /><g
     id="g4208"
     transform="translate(-60.747196,-3139.9078)"><path
       inkscape:export-ydpi="600.04968"
       inkscape:export-xdpi="600.04968"
       style="fill-opacity:1;stroke:#000000;stroke-width:0.89999998;stroke-miterlimit:4;stroke-dasharray:none;stroke-opacity:1"
       id="Bretagne"
       d="m 132.25405,3264.2925 -2.03125,1.5625 -4.5,0.5625 -0.90625,1.25 -3.0625,-2.2812 -4.53125,3.0312 1.625,2.1875 -2.4375,3.3438 -3.1875,-1.8438 -5.84375,0.1875 0,3.9063 -1.03125,0 -0.375,-1.8125 -2.3125,0.375 -0.4375,-4.8438 -2.4375,2.6875 -2.218754,-0.9375 -4.5625,0.4375 -0.78125,1.9688 -2.09375,0.5 -0.375,-2.125 -5.03125,0.6562 0,1.3438 -2.71875,0.1562 -1.4375,-1 -1.875,0.9375 -0.375,2.25 -5.15625,0.1875 -3.03125,3.6563 2.28125,1.7187 -3.03125,2.4688 1.0625,1.875 -0.8125,4.5 3.5625,0.4375 1.0625,-1.0313 0.46875,0.6563 7.59375,-1 1.53125,-1.0625 -1.3125,1.25 0.5,2.4687 3.65625,-1.625 -0.71875,2.4688 4.375,0.2187 -0.09375,0.5313 -4.375,-0.1563 -3.65625,-0.9375 -4.71875,-2.25 -3.15625,3.625 3.71875,1.25 -0.21875,5.6875 1.5,-1.1875 2.0625,-3.1562 3.84375,2.2187 1.875,0.4063 0.71875,2.8125 -1.0625,1.8437 -2.34375,-0.1562 -2.40625,0 -3.875,0.5937 -6.78125,0.375 -1.625,2.1563 2.3125,1.375 2.125,-0.1875 1.75,1.5625 2.5,-0.1875 3.96875,4.5312 0.9375,4.875 -1.5,3 4.53125,0.875 4.6875,-0.2187 1.125,-2.0625 -1.15625,-1.5938 0.75,0.3438 1.78125,-0.1875 3.125,1.75 2.312504,-0.4375 0,-0.9688 0.1875,0.8125 2.625,4.3125 5.90625,0.4063 0.125,-0.7188 1,1.4375 3.53125,0.625 2.375,0 0.0312,0.031 2.28125,3.6563 3.4375,0.8437 0.28125,-0.375 -0.1875,0.5938 2.90625,1.2812 3.46875,3.4063 1.09375,2.0312 -0.8125,5.1875 2.71875,2 1.53125,-1.75 -1.28125,-1.6875 0,-3 2.25,0.5313 0.625,-1.875 0.28125,0.6562 2.875,2.5 1.46875,-2.4062 -0.1875,-0.375 0.65625,0.9062 0.15625,-0.031 -1.875,2.375 2.625,0.875 1.8125,2.7813 10.6875,-0.9688 2.09375,0.4688 -1,0.8437 0.21875,2.0625 0.5625,0.4375 1.0625,-0.1875 1.59375,-1.5625 1.03125,1.1875 3.28125,0 3.8125,-1.9687 5.65625,-2.2188 0.1875,-5.5 1.25,-0.6875 3.625,-1.9062 12.25,-0.625 0.8125,-2.2813 1.84375,-1.8125 4.4375,-0.5937 0.1875,-2.0938 2.5,0.3438 1.71875,2.3437 4.28125,1.0313 0.875,-1.8125 1,-3.5 2.46875,-6.1563 1.21875,-0.6875 3.53125,0.4375 0,-5.75 -1.375,-1.375 0,-5.5312 -0.59375,-1.9688 0,-2.9687 1.96875,-1.9688 0,-4.1562 -0.96875,-0.7813 0.1875,-5.5312 -1.71875,-0.8438 -2.375,-0.031 -2.125,-1.6875 -2.21875,2.6563 -1.78125,0.2187 -1.5,2.0625 -1.3125,-0.3125 -3.21875,-2.8125 -1.125,-3.625 -0.65625,-2.6875 -9.75,0 -3.15625,-1.9375 2.46875,-3.3438 -5.40625,-0.2187 -2.0625,2.3437 0,0.031 -1.03125,1.1563 -3.84375,-0.4063 -0.40625,2.1875 -1.78125,0.1563 -0.1875,-2.625 -2.375,-0.7188 -0.96875,1.125 0,-3.7187 -2.71875,2.0312 -3.59375,-0.5937 -1.25,2.4375 -7.28125,3.9687 0,1.8438 -0.96875,0 0,-3.4375 -4.0625,-1.9063 0.375,-3.5 -3.71875,-2.7187 0,-3.4063 -2.71875,-0.5937 0.1875,-3.1563 -2.125,-0.1875 0.1875,-2.1875 -4.4375,0 -0.4375,1.3438 -0.96875,-2.3125 z m 9.75,73.1563 1.84375,0.4375 1.75,2.0937 -0.75,1.1875 -2.25,-0.6875 -3,-1.4062 2.875,-0.4375 -0.46875,-1.1875 z"
       inkscape:connector-curvature="0" /><path
       inkscape:export-ydpi="600.04968"
       inkscape:export-xdpi="600.04968"
       inkscape:export-filename="C:\Users\Romain\Desktop\path386.png"
       style="fill-opacity:1;stroke:#000000;stroke-width:0.89999998;stroke-miterlimit:4;stroke-dasharray:none;stroke-opacity:1"
       id="Pays-de-la-loire"
       d="m 244.94155,3287.6363 -2.25,0.2187 -0.84375,2 -2.6875,1.0938 -5.3125,-0.7813 -5.21875,3.0938 -1.9375,-1.375 -2.9375,1.9687 -1.9375,-1.4062 -1.40625,-2.375 -3.15625,-1.3125 -2,1.5937 -3.53125,-0.4062 -0.1875,5.5625 0.96875,0.7812 0,3.625 -1.96875,1.9688 0,3.25 0.59375,2 0,5.7187 1.375,1.375 0,4.8125 -3.0625,-0.375 -1.5625,0.9063 -2.59375,6.375 -0.96875,3.4687 -0.3125,0.6563 -0.34375,0.6875 -0.3125,-0.062 -3.28125,-0.8125 -1.75,-2.375 -3.375,-0.4375 -0.1875,2.2187 -4.15625,0.5625 -2.03125,2.0313 -0.78125,2.0625 -11.90625,0.5937 -5.375,2.8438 -0.1875,5.4375 -5.3125,2.0937 -3.65625,1.9063 -2.90625,0 -1.28125,-1.5 -1.90625,1.9062 -1.46875,0.2813 1.28125,0.875 -3.65625,3.2812 0.96875,0.9688 0.6875,1.375 -2.0625,2.875 2.4375,1.3125 4.09375,0.875 0.28125,-1.25 1.875,2.375 3.8125,0 2.53125,-2.75 1.90625,0 -2.53125,1.2812 0.1875,2.1563 0.71875,1.6562 -1.90625,1.9375 -2.5625,0 0.5,3.5938 4.4375,-0.8125 4.78125,4.375 -0.0625,0.094 -0.21875,0.2812 -5.6875,7.3125 -0.1875,4.9063 6.03125,5.8437 -0.21875,1.9375 1.875,0 3.6875,11.0625 3.96875,1.9688 3.96875,3.9687 4.40625,0 1.75,3.9063 4.34375,0 1.90625,2.875 4.78125,2.375 0.1875,-2.5625 0.78125,0.75 6.125,-3.6875 2.4375,-0.1563 1.1875,3.1875 3.84375,-1.625 3.15625,2.375 2.625,-1.25 2.25,-0.625 1,-1.1875 3,-1.9375 -2.375,-2.4062 -1.375,1.0312 -0.0937,-0.9687 1.40625,-2.625 -1.375,-2.3125 1.125,-1.5 -0.625,-5.5938 -1.84375,-2.8437 1.375,-1.8125 -3.15625,-3.5313 1.15625,-2.5625 -4.75,-3.9687 0,-2.3125 -1.78125,-2.5 0.5,-0.2188 3.1875,-1.375 6.09375,1.4063 2.9375,-1.9688 0,-2.5937 5.0625,-0.375 4.8125,-0.9688 5.0625,-0.1875 0.53125,1.1875 1.71875,1.5 1.5,-2.5937 3.625,-3.8125 1.59375,0 2.25,-8.1563 3.15625,-3.75 -0.21875,-4.3125 1.96875,-2.5625 0,-1.3437 -0.90625,-1.125 0.5625,-1.1563 1.125,-2.25 3.71875,2.5938 2.65625,0 -1.0625,-3.5 1.90625,1.2812 1.46875,-2.125 5.875,-1.625 -1.03125,-2.5 1.21875,-1.5625 2.9375,-1.1562 2.8125,-3.6563 0,-3.5312 1.90625,0 0.84375,-3 0.1875,-4.25 -1.84375,-1.7188 1.40625,-2.4687 2.5,-3.1875 -2.96875,-2.0938 -2.53125,-0.4375 -2.75,-4.125 -1.21875,0 -0.0625,0.5938 -3.96875,0 -1.9375,-2.9063 -3.25,-1.1562 -0.9375,-6.8438 -1.71875,-2.375 -5.5313,0.1876 -5.28125,4.875 -2.6875,-0.1563 -0.28125,-0.031 -0.96875,-3.4687 -2.53125,-0.9688 -0.75,-4.2188 -1.9375,-1.7187 z"
       inkscape:connector-curvature="0" /><path
       inkscape:export-ydpi="600.04968"
       inkscape:export-xdpi="600.04968"
       inkscape:export-filename="C:\Users\Romain\Desktop\path386.png"
       style="fill-opacity:1;stroke:#000000;stroke-width:0.89999998;stroke-miterlimit:4;stroke-dasharray:none;stroke-opacity:1"
       id="Nouvelle-aquitaine"
       d="m 250.94155,3366.9488 -3.84375,4.0312 -0.4375,0.7813 -0.71875,1.25 -1.0625,-0.875 -0.625,-1.5 -5.53125,0.2187 -4.84375,0.9688 -5.5625,0.4062 0,2.8438 -2.46875,1.625 -6.03125,-1.375 -4.53125,1.9375 2.09375,2.9687 0,2.4063 4.625,3.8437 -1.15625,2.5 3.09375,3.4688 -1.34375,1.75 2,3.0312 0.59375,5.2813 -1.21875,1.625 1.375,2.3437 -1.3125,2.5 0.25,2.1875 1.78125,-1.3437 1.46875,1.5312 -2.40625,1.5313 -0.96875,1.1562 -2.125,0.5938 -2.34375,1.0937 -0.0312,-0.031 -0.53125,-0.4375 0,0.062 -2.5625,-1.9375 -3.59375,1.5313 -1.125,-3.0625 -2.9688,0.2187 -6.4375,3.875 1.46875,1.3437 -2.9375,2.375 -0.34375,1.875 -2.5625,0.3125 -1.53125,-1.7187 -3.8125,-0.3438 -0.40625,-1.875 -2.5625,-1.7187 -3.8125,1.375 2.46875,3.5625 2.78125,0 2.65625,1.6875 2.25,1.8125 4,-0.1875 0.75,1.7187 2.71875,0.5938 0.96875,2.6875 1.6875,0.7187 -0.15625,1.625 -2.21875,-0.3437 -1,1.4687 1.78125,2.5938 -0.875,3.9375 -2.40625,-0.1875 -0.625,-1.3438 -0.9375,-0.8125 -0.40625,-4.8125 -3.4375,-0.4375 -3.125,-3.8125 -0.46875,7.7813 4.5,3.3437 0.375,3.5938 0.78125,4.25 0.4375,4.625 2.53125,-0.25 4.03125,3.3125 2.59375,1.4687 0.21875,2.0313 2.28125,0.4062 6.125,6.125 1.375,6.3125 0.125,0.5938 0.0312,0 1.5625,6.625 0.375,5.5625 -0.53125,0.8437 -0.8125,-3.9687 -2.78125,-10.8125 -9.9375,-8.9688 0.25,-4.2187 -2.4375,-0.25 -3.28125,4.9062 -0.9687,16.4688 -2.53125,16.5937 -1.78125,12.9063 -0.1875,3.3437 0.59375,0.094 1.34375,-4.4375 2.5,-3.25 3.59375,3.2813 0.40625,1.0937 0.84375,1.1875 -4.125,0.1875 -0.84375,-1.25 -2.3125,0.9375 -0.4375,3.0313 -2.15625,2.9375 0,4.5312 -0.0312,0.125 -3.46875,18.5938 -4.5,17.1875 -1.375,6.6562 -1.125,4.6563 -2.75,4.7187 -0.125,0.2188 -0.1875,0.2812 -0.625,1.125 -4.4375,5.4063 -3.375,1.3437 -2.78125,0.4063 0,2.5625 2.53125,2.3125 3.34375,0.1562 0.1875,2.5313 3.21875,0.25 0.75,-1.6875 3.46875,1.4687 2.1875,0.5313 0.46875,2 -1.3125,1.1562 0,3.625 -2.71875,1.375 -0.21875,2.0625 1.875,2.125 3.53125,1.0938 0.65625,-3.1875 1.09375,-1.2188 -0.125,1.75 1.53125,2.1875 3.5,0 1.53125,2.0938 4.75,0.7812 4.53125,2.7813 7.21875,0 0.40625,3.9375 5.09375,3.9687 2.125,2.5 2.34375,-1.25 1.75,-0.3437 1,1 5.53125,-3.0313 0.3125,-4.0625 1.5625,-1.1562 0.78125,-6.25 2.71875,0.5312 1.5,-0.9687 -1.375,-2.7813 5.09375,-4.3437 3.15625,-7.0938 2.0625,-2.6875 -3.875,-5.8125 2.15625,-1.9687 -3.53125,-5.8125 -5.25,-0.375 -0.0625,-0.062 -0.21875,-0.4063 -1.15625,-2 1.3125,-3.5625 2,-2.5937 -0.59375,-3.2813 1.625,-1.625 -2.34375,-3.9375 1.75,-2.0937 1.96875,-0.375 2,0.8437 2.5625,-2.1875 0.84375,2.5 1.125,1.625 2.59375,-0.6875 -0.21875,-2.7187 0.65625,-1.4063 0.53125,-1.0937 2.21875,1.875 3.0625,-3.0625 1.28125,1.8125 3.5,-0.625 3.6875,-0.4063 1.5625,-2.75 5.53125,-0.5312 3.0625,3.0312 1.15625,-1.125 2.15625,-0.6562 -0.78125,-2.7188 2.625,-0.6875 4.03125,-0.875 -0.84375,-2.5 1.0625,-1.2187 1.0625,-4 -2.15625,-2.3438 1.21875,-3.9375 2.71875,1.625 4.8125,-0.875 -2.125,-4.625 -1.46875,-5.5 3.71875,-0.1562 0.96875,-2.5313 0.0625,-0.1562 1.8125,-1.7813 0.1875,-2.8125 4.15625,-0.375 3.0625,-4.3437 -1.375,-0.4688 -0.15625,-1.625 3.25,-0.4062 0.25,-2.0313 1.4375,-0.9375 1.9375,-3.4062 -1.8125,-2 0,-1.9063 1.4375,-1.25 0.125,-0.031 4.125,-1.9062 4.75,2.125 3.90625,5.5937 2.5,-0.3437 3.09375,-3.0938 1.09375,1.9375 2.375,-2.3437 2.6875,0.7187 0.125,0.9375 3.125,-2.1875 -0.875,-2.1562 -1.0625,-1.0938 1.3125,-1.625 1.65625,0 1.03125,-3.2812 0.84375,-1.6563 -0.59375,-3.5 2.40625,-3.3437 3.625,-2.2188 0.1875,-5.1562 1.25,0.7187 2.03125,2.2188 2.21875,0 1.40625,-1.625 -1,-2.4063 0.9375,-3.4687 -0.625,-3.4688 -1.15625,-1.3437 0,-2.5625 1.78125,-2.9375 -0.4375,-2.9375 -0.25,-0.2813 -4.21875,-4.25 -0.3125,-1.4375 3.5,-2.0312 2.28125,-1.25 0.5625,-2.75 2.40625,-1.8125 -0.8125,-3.9063 -1.5625,-2 -0.375,-5.9687 -2.21875,-5.2813 -2.1875,-0.7812 -1.71875,-3.0313 -1.40625,1.7813 -1.0625,-1.3438 0,-2.3437 -2.5,-3.5313 -6.5625,0.7813 -3.6875,-0.9375 -10.03125,-1.2188 -1.15625,3.125 -3.25,-0.1562 -0.78125,-0.4375 -2.34375,0.2187 -1.875,-1.2812 -3.03125,3.5 -0.4375,0.5 -0.15625,0.1875 -0.25,0.2812 -3.09375,-3.0937 -1.875,1.8437 -3.53125,-0.25 0.4375,-3.3125 -2.1875,-1.1875 -1.21875,-4.1562 -3.21875,-0.4375 -1.875,-1.875 -3.5625,-2.8125 0.71875,-2.1563 0,-3.9375 -3.53125,-3.5 -0.375,-2.75 -3.375,-3.5312 -1.15625,-4.75 -1.4375,-0.625 -1.6875,-2.3125 -1.96875,1.25 0.375,2.0625 -4.71875,1.125 -5.53125,0 0.15625,-2.0625 0,-3.9375 -4.6875,-1.375 0,-2.375 -3.78125,-0.7813 -0.78125,-3.1562 -2.125,0 z m -49.59375,72.5312 0.1875,2.8438 0.34375,0.6562 -1.96875,0 -0.28125,-1.2187 1.71875,-2.2813 z"
       inkscape:connector-curvature="0" /><path
       inkscape:export-ydpi="600.04968"
       inkscape:export-xdpi="600.04968"
       inkscape:export-filename="C:\Users\Romain\Desktop\path386.png"
       style="fill-opacity:1;stroke:#000000;stroke-width:0.89999998;stroke-miterlimit:4;stroke-dasharray:none;stroke-opacity:1"
       id="Ile-de-france"
       d="m 317.9728,3250.6675 -1.875,2.3125 -1.21875,4.4063 -1.15625,1.9375 -0.0312,0 -0.125,0.25 -5.4375,1.5625 -0.96875,1.2187 1.0625,1.6563 0,1.7187 1.4375,0.3125 -0.6875,0.7188 0.15625,1.5312 0.34375,-0.25 1.6875,1.6875 0.59375,2.3438 1.5,1.5 -0.71875,1.9687 -0.0312,2.1563 1.3125,1.4687 -1.34375,2.3125 1.46875,3.5625 2.6875,1.9063 0.40625,2.25 2.34365,0.375 0.5625,4.1562 1.875,2.3125 3.28125,0.625 0.71875,0.125 0.34375,2.3438 0.40625,0.6562 0.4375,5.4688 6.65625,-0.5938 2.40625,-2.25 2.03125,1.6563 5.1875,0.375 1.21875,1.8125 0.71875,1.0625 2.25,1.125 0.1875,2.9687 -3.3125,2.2813 2.21875,1.9687 2.25,-1.4375 5.28125,0.1875 2.09375,-0.4062 0.5625,-1.5313 1.71875,0.1563 0.40625,1.75 5.21875,-2.9375 4.375,-5.1563 -1.59375,-1.7812 1.25,-2.6875 3.34375,-1.6563 7.65625,0.375 1.625,-1.25 0.40625,0.4063 0.5,-3.875 0.78125,-3.8438 1.375,-1.7812 0.1875,-2.25 2.71875,-1.1563 0,-2.0937 -3,0.1875 -0.46875,-1.0313 0.96875,-1.7187 -0.84375,-3.1875 -1.5,-0.9375 0.375,-2.375 1.59375,-1.0313 -0.21875,-1.2187 0.78125,-0.9688 -3.59375,-0.75 -1,-2.3125 -1.8125,-0.625 -5.125,-4.9375 -0.59375,-4.3437 -2.40625,-1.75 -1.40625,0.7187 -1.8125,1.4688 -1.90625,-0.5938 -3.3125,1.375 -2.8125,-1.625 -1.25,1.6563 -1.5,0.1562 -1.125,-0.9062 -2.125,-1.25 -2.28125,1.5312 -0.34375,-0.3437 -0.875,-0.8438 -4.34375,-2.5937 -4.25,-2.2188 -2.21875,1 -2.1875,0.5625 -1.46875,-1.125 -3.3125,-2.0312 -2.625,2 -3.59375,0.4062 -5.125,-0.4062 -1.09375,-1.75 -0.9375,-2.2188 z"
       inkscape:connector-curvature="0" /><path
       inkscape:export-ydpi="600.04968"
       inkscape:export-xdpi="600.04968"
       inkscape:export-filename="C:\Users\Romain\Desktop\path386.png"
       style="fill-opacity:1;stroke:#000000;stroke-width:0.89999998;stroke-miterlimit:4;stroke-dasharray:none;stroke-opacity:1"
       id="Hauts-de-france"
       d="m 348.25405,3145.23 -6.46875,3.0313 -9.71875,1.5625 -0.34375,0.062 -0.0625,0 -0.5625,0.094 0,0.031 -10.375,1.9687 -8.84375,6.7813 0,26.5 -0.0312,0.4062 -0.0625,0.625 -0.5,6.3125 4.3125,3.9063 0,1.3437 -5.03125,-3 -6.78125,8.3125 2.125,0.9063 2.03125,-0.1875 0.875,1.7812 8.59375,8.4063 0.5625,3.4062 1.875,3.4375 -0.5313,0.6563 -1.28125,1.5312 -0.96875,2.4375 1.5625,0 -0.65625,1.5938 -0.78125,4.0312 1.15625,1.9688 0,3.5625 1.75,0 -1.90625,3.5 -0.625,1.9375 1.8125,1.625 0.53125,4.4062 0.84375,1.3438 -0.875,0.2187 -2.03125,-1.125 -0.5,3.8125 0.46875,-0.5937 0.5625,1.3125 1.28125,2.0937 5.5,0.4063 3.78125,-0.4063 2.4375,-1.875 2.9375,1.8125 1.6875,1.2813 2.53125,-0.6563 1.96875,-0.9062 4,2.0937 4.25,2.5 1.5,1.5313 2.40625,-1.5938 1.75,1.0313 1.28125,1.0312 2,-0.2187 1.09375,-1.4375 2.625,1.5 3.375,-1.4063 2,0.625 2,-1.625 1.03125,-0.5312 0.0625,0.062 0,0.031 0.3125,0.2187 0.25,0.1563 1.28125,0.9375 0.59375,4.2812 5.3125,5.125 1.71875,0.625 1.03125,2.375 3.59375,0.75 0.5625,-0.7187 0.96875,-2 2.9375,-1.375 1.5625,-4.125 1.9375,-1.3125 -1.28125,-1.75 -2.4375,0 -0.25,-0.875 1.59375,-0.7188 1,-1.5 -1.8125,-1.2187 0.4375,-1.375 4.71875,-0.375 -1,-2.2188 -2.65625,-1.75 0,-4.9375 3.5,-2.5937 4.375,0 -0.40625,-2.0625 1.96875,-0.8438 3.28125,2.1563 1.71875,-0.4688 -0.1875,-6.875 0.59375,-2.2812 0.84375,-2.9688 -2.53125,-1.3437 0.4375,-1.1563 3.78125,-0.8125 0,-2.5937 2.90625,-1.5312 0.84375,-2.5938 -1,-1.5937 0.1875,-2.7188 1.84375,-1.625 -1.8125,-3.4375 0.5625,-3.7187 -3.34375,0 -1.03125,0 -0.125,-1.5 3.90625,-2.3438 -0.65625,-4.0937 -3.40625,-0.9063 0.6875,-0.7187 0,-2.6875 3.03125,-2.2188 -0.90625,-1.7812 -6.40625,-5.0313 -11.21875,0.5938 -1.15625,1.9375 -0.90625,0 0.1875,-6.6563 -3.3125,-3.9062 -2.34375,0.375 -1.40625,-1.5938 -3.90625,1.75 -1.28125,-1.2812 -2.65625,-0.375 -0.71875,-2.3125 -0.1875,-7.9688 -1.78125,-0.7812 -0.21875,-1.2813 -1.15625,0 -0.40625,-2.375 -2.875,0.25 -4.96875,1.5938 -2.3125,2.875 -2.0625,0 -1.4375,-1.7813 -0.5625,-2.0937 -2.09375,-2.375 -2.71875,0 -1.03125,-1.9063 0,-3.1875 1.375,-2.1562 -0.84375,-3.125 -2.65625,-5.3438 z"
       inkscape:connector-curvature="0" /><path
       inkscape:export-ydpi="600.04968"
       inkscape:export-xdpi="600.04968"
       inkscape:export-filename="C:\Users\Romain\Desktop\path386.png"
       style="fill-opacity:1;stroke:#000000;stroke-width:0.89999998;stroke-miterlimit:4;stroke-dasharray:none;stroke-opacity:1"
       id="Provence-alpes-cote-d-azur"
       d="m 509.62905,3480.4175 -1.96875,0.875 -0.40625,2.875 -3,0.3438 -0.5625,-2.5625 -1.3125,-1.3438 -3.75,0.4063 -1.53125,1.3125 -0.8125,4.3125 0.71875,1.1875 4.03125,0.4062 0.78125,2.4688 1.5,0.75 0,3.7812 -3.53125,-0.1562 -1.5625,1.7187 -4.4375,-0.7812 -2.5,2.125 -1.78125,-0.7813 -2.875,2.25 1,1.7813 -1.3125,1.3125 -5.0625,0 0,2.8125 1.46875,0.75 -0.4375,1 -3.15625,1.2812 -4.21875,0.4063 -1.28125,4 -0.1875,2.5 2.03125,1.625 -1.8125,2.125 -2.5,-1.25 -3.5,-0.25 -0.5,2.1875 1.78125,1.25 -2.1875,1.4375 0.90625,3.6875 6.65625,1.7812 1.1875,2.5625 1.8125,0.3438 -0.625,5.9687 -0.0312,0.3125 -0.75,-0.875 -1.90625,-1.6562 -1.125,3.2812 -1.59375,1.4063 -0.375,-0.031 -0.28125,0 -0.34375,-0.031 -1.3125,-0.094 -2.78125,-2.0625 -0.8125,-2.625 -5.65625,-0.4063 -3.875,-0.375 -0.34375,-2 1.3125,-2.875 -0.46875,-0.3437 -2.40625,2.0625 -3.625,-0.375 -0.625,-1.0625 2.75,-3.75 -3,-2.8438 -3.03125,0.25 -2.25,3.5313 0.59375,3.8437 3.1875,0.375 -0.375,1.0313 -2.5,0.1875 -2.75,2.7812 -0.46875,-0.625 0.5625,-3.9062 -1.34375,-1.5938 -5.625,0.8438 -1.21875,2.4687 0.75,0.4063 3.21875,5.375 0,4.4687 5.8125,5.7813 0,2.2187 -2.625,1.5 -5.0625,2.875 -1.40625,10.3438 -5.71875,-0.7813 -1.78125,4.7813 1.28125,1.7812 -6.15625,3.7813 -1.96875,4.5312 6.625,0.3125 8.09375,0.5938 0.96875,0.9687 -2.375,0 -2.21875,3.8125 8.8125,1.8438 7.3125,-1.2813 -3.71875,-3.5 1.9375,-1.625 3.46875,1.4688 1.75,3.7812 11.40625,0.1875 2.6875,-1.0937 0.40625,1.2812 -3.53125,3.0938 4.65625,0.1875 -0.625,1.5312 -1.5625,1.8438 10.15625,0 4.5625,1.5 0.34375,0.4687 0.625,0.875 3.46875,1.5313 0.96875,3.9687 2.46875,0.4375 2.0625,-1.4375 3.40625,-2.0937 5.65625,0.5625 -0.125,1.0937 -1.84375,0.9063 0.125,0.5625 5.4375,0.25 -1.5938,-1.6564 -0.375,-2.25 2.25,-1.5625 2.8125,0.9062 1.09375,0.375 1.09375,1.3125 1.71875,-1.1875 0.375,-2.5937 1.375,-1.1875 4.15625,0 1.15625,-1.75 2.59375,0.7812 3.40625,-1.4687 0,-5.625 -3.25,0.1562 2.15625,-1.3437 1.625,-2.2188 0.4375,-3.0312 5.5625,-0.7813 3,-3.3437 0,-0.031 0.1875,-0.1875 0.21875,-0.25 0.0312,-0.062 0.1875,-4.2188 3.75,0.75 1.375,-1.7812 2.125,0.4375 0.1875,-6.1563 4.34375,-0.3437 3.875,-3.5313 3.65625,0 0.21875,-2.2812 3.625,-2.1875 -2,-4.5313 2.90625,-2.5 -0.5625,-2.8437 4.21875,-1.3438 1.21875,-4.5 -0.59375,-3 -1,-1.8125 -0.84375,-2.7812 -3.15625,0.25 -9.21875,3.3125 -2.78125,0 -4.96875,-4.0313 -5.21875,-1.4375 -2.71875,0 0,-3.4062 -4.09375,-2.5313 0,-3.4687 3.15625,-0.4375 -2.0625,-1.8125 -1.9375,-0.5938 -0.875,-2.2812 0.71875,-1.5938 3.5625,-3.8125 -0.5625,-2.75 0.3125,-0.3125 0.0625,-0.062 0.46875,-0.5 1.3125,-1.4375 2.28125,0.2188 0,-2.2813 -2.71875,-1.375 -0.59375,-5.6875 -2.40625,-0.875 -2.71875,0.4063 -4.84375,-2.4375 -0.8125,-5.875 -2.96875,-0.9688 -0.9375,-1.875 -1.34375,-2.9687 -4,-0.1875 z"
       inkscape:connector-curvature="0" /><path
       inkscape:export-ydpi="600.04968"
       inkscape:export-xdpi="600.04968"
       inkscape:export-filename="C:\Users\Romain\Desktop\path386.png"
       style="fill-opacity:1;stroke:#000000;stroke-width:0.89999998;stroke-miterlimit:4;stroke-dasharray:none;stroke-opacity:1"
       id="Corse"
       d="m 622.90149,3612.974 -3.25,2.1875 0.4375,2.125 1.4375,1.8438 -1.71875,1.3125 0.40625,0.8125 0.40625,0.8125 -1.125,1.2812 0,2 1.96875,1.7813 0,2.5312 -1.125,2.375 -1,0.4375 -0.59375,-0.7812 -0.9375,-1.3125 -2.8125,0.2187 -0.59375,-0.4062 -2.53125,0 -2.28125,2.125 -0.78125,3.2187 -4.96875,0.9375 -4.03125,3.4063 -0.71875,2.0312 -1.59375,-0.1562 -1.34375,-1.5938 -0.625,3.8125 -1.40625,0.5625 -0.4375,3.375 0.53125,1.25 -2.03125,1.4688 -0.53125,1.4375 -1.65625,0 0,2.625 2.09375,1.4687 3.21875,1.875 0.15625,1.1563 -1.6875,0.5312 -3.375,0.625 0,1.7188 1.15625,1.1875 0.21875,4 4.5,1.4375 1.4375,0.3437 1.21875,1.9063 -0.8125,1.125 -1.5625,0.5625 -1.21875,2.2187 -1.25,1.4688 0.625,3.9062 3.09375,-0.1875 0.84375,0.625 2.75,-1.3437 0.46875,0.4687 -1.375,2.9375 1.28125,1.2813 -2.125,1.5937 -1.75,3.9063 4.6875,1.0937 5.46875,0.5 -2.03125,2.3438 c -0.411,-0.139 -1.25,-0.354 -1.75,-0.125 -0.03,0.015 -0.058,0.01 -0.125,0.062 -0.007,0.01 -0.0408,0.038 -0.0937,0.094 -0.018,0.014 -0.0668,0.048 -0.0937,0.094 l -0.0625,0.125 c -0.002,0 0,0.029 0,0.031 l 0,0.031 c -0.013,0.026 -0.0213,0.069 -0.0312,0.125 l 0,0.094 c 0,0.734 -0.9475,2.5515 -1.3125,3.1875 l -0.125,0.1875 2.09375,2.2812 3.59375,2.2188 6.6875,1.7812 1.90625,0.7813 1.5,0.625 -1.28125,2.375 3.4375,-0.2188 0.59375,1.3438 3.5625,0 0.90625,-4.25 -1.75,-0.3438 2.59375,-2.7187 -1.09375,-1.0938 0.15625,-1.4687 3.53125,-1.9375 0.25,-2.625 -2.78125,-0.2188 -1.15625,1 0,-1 3.03125,-0.1875 1.03125,-2.5 0.8125,-6.9375 0,-0.062 -0.59375,-2.9062 -0.0625,-2.6563 -0.125,-5.8437 4.6875,-6.625 0,-11.0313 -0.0937,-0.1562 -1.84375,-3.6563 -0.59375,-11.7187 -1.40625,-2.2188 -2.5,-1.9375 -0.40625,-7.0625 1.21875,-3.3437 -1.59375,-5.3438 -0.96875,-4.2812 -0.875,-1.3125 -2,-1.125 z"
       inkscape:connector-curvature="0" /><path
       inkscape:export-ydpi="600.04968"
       inkscape:export-xdpi="600.04968"
       inkscape:export-filename="C:\Users\Romain\Desktop\path386.png"
       style="fill-opacity:1;stroke:#000000;stroke-width:0.89999998;stroke-miterlimit:4;stroke-dasharray:none;stroke-opacity:1"
       id="Normandie"
       d="m 304.19155,3202.6675 -1.375,1.6875 -8.34375,6.4063 -14.8125,3.7187 -9.8125,3.5313 -8,4.3125 -4.78125,7.125 -1.0625,5.75 4.0625,3.0625 4.21875,0.9062 -3.90625,0.6875 -7.5,4.3438 -8.25,3.25 -6.53125,-3.6563 -16.03125,-2.375 -3.78125,-1.9687 -5.5625,1.4375 -1.8125,0.4375 -0.1875,-4.4063 -5.03125,-5.9687 1.40625,-3.5625 2.375,0 -2.125,-5.875 -8.71875,-0.4063 -4.40625,3.0625 -4.90625,-3.2187 -7.59375,-2.25 -0.96875,2.4062 4.1875,3.375 0,4.0625 -1.65625,2.0625 1.1875,1.1875 0.4375,0.3125 -0.375,3.625 1.40625,3.1875 4.5,5.0938 0.9375,4.4062 0.96875,1.4063 0,6.9375 2.34375,4.7812 0,5.3125 -2.5625,5.125 2.84375,7.3125 4.25,0.9375 0.3125,1.5625 -1.875,0.8438 -4,0 0.6875,2.8437 1.1875,3.8125 3.40625,3 1.90625,0.4688 1.59375,-2.1563 1.75,-0.2187 2,-2.4063 1.8125,1.4375 2.375,0 1.34375,0.6563 0,0.4687 3.6875,0.4375 1.9375,-1.5 2.65625,1.0625 0,0.031 0.1875,0.3438 1.125,1.875 2.40625,1.7812 2.9375,-1.9687 1.9375,1.375 5.375,-3.1875 5.25,0.7812 3.09375,-1.25 0.78125,-1.9062 1.625,-0.1563 1.59375,1.4063 0.78125,4.3437 2.5625,1 1,3.5938 3.65625,0.1875 5.28125,-4.875 5.03125,-0.1875 1.4375,1.9375 0.96875,7.1562 3.375,1.1875 2.03125,3 3.96875,0 0.15625,1.0938 0.59375,-0.031 0.15625,-1.6563 0.375,0 2.71875,4.0625 2.59375,0.4375 0,-5.0937 -1.34375,-1.8125 -0.34375,-1.2813 2.6875,-1.625 3,-0.5937 2.09375,-2.5 -0.40625,-7.4688 -4.125,-3.5 -0.1875,-3.375 -0.46875,-0.3125 2.4375,-2.3437 2.625,0 7.0625,-3.6563 2.1875,0.9063 5.15625,0.031 1.3125,-1.5625 0,-2.875 3.90625,-1.9375 0,-3.1563 1.09375,-0.9062 -0.0937,-0.875 1.28125,-1.2813 -2.0625,-0.4375 0,-1.4062 -0.9375,-1.4688 0.59375,-0.7187 5.5,-1.5625 1.4375,-2.4688 1.1875,-4.3125 1.46875,-1.8125 0.25,-1.9375 1.46875,0.8125 1.90625,-0.5312 -1.1875,-1.8438 -0.5625,-4.5312 -1.6875,-1.5313 0.46875,-1.5 1.375,-2.5625 1.03125,-1.7812 -2.1875,0 0,-3.1563 -1.125,-1.9062 0.75,-3.7188 0.9375,-2.375 -1.5625,0 0.59375,-1.5 2.03125,-2.4687 -2,-3.6563 -0.59375,-3.5625 -8.625,-8.4375 -1.0625,-2.0625 -2.28125,0.1875 -1.8125,-0.7812 z"
       inkscape:connector-curvature="0" /><path
       inkscape:export-ydpi="600.04968"
       inkscape:export-xdpi="600.04968"
       inkscape:export-filename="C:\Users\Romain\Desktop\path386.png"
       style="fill-opacity:1;stroke:#000000;stroke-width:0.89999998;stroke-miterlimit:4;stroke-dasharray:none;stroke-opacity:1"
       id="Grand-est"
       d="m 429.81655,3197.105 -2.03125,3 -1.84375,1.8438 0,4.0625 -2.1875,1.4687 -4.25,1.3438 -2.1875,0.9062 -2.6875,-2.0937 -4.09375,0 -0.5625,3.8125 1.6875,3.1875 -1.6875,1.5 -0.1875,3.1562 0.9375,1.5 -0.6875,2.0938 -3,1.5937 0,2.4688 -3.65625,0.7812 -0.71875,1.9688 2.5625,1.375 -0.71875,2.5 -0.59375,2.375 0.125,5.2187 0.0625,1.25 -1.03125,0.2813 -3.3125,-2.1563 -2.71875,1.1563 0.375,1.8125 -3.84375,0 -3.90625,2.9062 0,5.5625 2.78125,1.8125 0.5625,1.2813 -4.28125,0.3437 -0.6875,2.1875 1.6875,1.125 -0.5625,0.875 -1.90625,0.8438 0.5,1.8125 2.625,0 0.71875,1 -1.5625,1.0625 -1.5625,4.0625 -2.90625,1.375 -1.03125,2.1562 -1.0625,1.3125 0.21875,1.0938 -1.5,0.9687 -0.46875,3.0313 1.625,1.0312 0.71875,2.6875 -0.96875,1.7813 0.75,1.6875 2.78125,-0.1563 0,0.4063 0,0.625 -2.71875,1.1562 -0.1875,2.4375 -1.3125,1.6875 -0.84375,4.0625 -0.46875,3.4375 1.4375,1.1875 2.3125,0 4.90625,5.0938 -0.625,5.3125 3.84375,2.9375 1.9375,-1.3438 2.875,3.4375 0.375,3.5313 2.1875,2.9062 1.03125,2.3438 8.09375,0.4062 3.71875,-1.875 1.0625,2.0313 1.75,0.25 1.03125,-2.1875 6.25,-0.1875 2.78125,-1.4688 0.40625,-2.4375 5.3125,0 1.34375,0.75 1.6875,0.9375 3.4375,3.6563 4.34375,5.875 -2.59375,2.7812 1.90625,1.3125 0.21875,3.4375 3.21875,-0.1875 0.78125,1.5625 2.59375,0.1875 1.59375,-0.875 2.9375,3.6563 0.5,1.1562 4.6875,-1.0312 0.78125,-1.9063 0.3125,0.062 0,-2.125 2.40625,-1.0625 3.125,1.1875 3,-1.2187 1.9375,0 0.625,-4.0938 1.28125,-1.5 -2.0625,-0.2187 -0.15625,-1.8438 2.6875,-0.5937 0.15625,-1.5 2.78125,0 0,-2.625 2.25,-0.8125 -0.59375,-1.625 0.1875,-0.125 0.0625,-0.031 0.46875,-0.3125 1.25,-0.75 -0.75,-1.1563 0.5,-0.2812 1.34375,1.5625 2.28125,-1.5938 0.5625,-1.8437 3.375,-0.5625 0.78125,0.625 -0.1875,2.1562 2.75,2.0938 1.78125,-0.1875 1.71875,-1.375 3.84375,0 2.9375,3.3125 1.1875,0 1.75,-1.0938 0.21875,-1.125 1.28125,-0.6562 1.5625,1.0625 1.71875,1.9375 6.21875,3.2812 0.875,1.6875 3.1875,0.1875 3.40625,2.625 0.5,1.2188 -0.1875,2.2187 -0.96875,1.8125 0.4375,2.7188 2.78125,-0.4063 0.5,1.9063 1.03125,4.4062 2.1875,-0.3437 -0.375,1.875 1.59375,1.375 7.4375,-0.1875 3.90625,-3.0938 0.1875,-4.3437 2.0625,-2.6563 -2.6875,-3.0937 -1.25,-2.9063 1.5,-2.0937 0,-4.9375 0.96875,-2.2813 0,-3.9375 1.8125,-2.625 -2,-2.8125 -0.15625,-5.0625 -0.0312,-0.4375 0,-0.2187 -0.0312,-0.3438 5.0625,-9.9062 0.0625,-0.094 -0.625,-5.6875 2.34375,-7.625 0.59375,-6.5 5.0625,-3.7188 0,-2.375 1.8125,-2.375 1.5625,0 1.9375,-1.9375 -0.40625,-3.375 1.6875,-4.4687 3.15625,-0.7188 -3.28125,-2.5937 -4.90625,-0.5625 -4.40625,-2.2188 -2.84375,1.7188 -1.5,-1.6563 -2.25,0 -3.09375,0.8438 0,-0.031 -0.5625,0.1562 -0.28125,0.094 -0.0625,0.031 -1.21875,-1.75 -3.9375,-2.4062 -1.4375,-2.25 -4.96875,0.4375 -2.75,2.5312 -6.40625,0.1875 -1.84375,-1.2812 c -0.249,-0.443 -1.17125,-1.9898 -2.03125,-2.4688 -0.039,-0.021 -0.071,-0.074 -0.125,-0.094 -0.038,-0.019 -0.092,-0.015 -0.125,-0.031 l -0.1875,-0.031 0,0.2813 -0.0937,-0.2813 c -0.69,0 -2.1,-0.739 -2.75,-1.125 l -0.125,-0.062 -3.0625,1.2813 -0.1875,2.2812 -2.875,0.3438 -1.90625,-3.625 -1.09375,-0.375 0,-2.7188 -2.75,-1.1875 -0.1875,-4.625 -2.0625,-2 -4.15625,-2.0312 -2.15625,-0.031 -0.59375,0.4063 -1.78125,0 -2.71875,-2.3438 -3.1564,0.1873 -2.4375,2.0313 -0.5625,0.9062 -3,0 -1.15625,-1.1875 -0.34375,0 -2.78125,0 -3.53125,-3.9062 -4.75,0 -2.34375,2.1562 -3.34375,0.1875 -1.15625,1.1875 -0.375,0 -0.4375,0 -0.75,-3.5625 -1.6875,-1.6875 -0.78125,-0.125 -0.625,-0.094 -1,-0.1563 -0.78125,-3.8125 -1.71875,-1.3125 -5.375,-0.5937 -0.9375,-2.4375 -1.84375,-1.2188 -6.15625,-0.7812 -0.34375,-4.125 0.78125,-0.7813 0,-2.0312 -3.0625,-1.9375 0.5,-1.9063 0.875,-2.1562 -1.28125,-1.0938 2,-1.8125 0,-3.8125 -0.96875,-0.6875 -3.1875,0 z"
       inkscape:connector-curvature="0" /><path
       inkscape:export-ydpi="600.04968"
       inkscape:export-xdpi="600.04968"
       inkscape:export-filename="C:\Users\Romain\Desktop\path386.png"
       style="fill-opacity:1;stroke:#000000;stroke-width:0.89999998;stroke-miterlimit:4;stroke-dasharray:none;stroke-opacity:1"
       id="Occitanie"
       d="m 309.7853,3488.5425 -4.21875,1.9688 -1.03125,0.1562 0.25,0.375 -1.25,1.0625 0,2.4063 1.6875,1.875 -1.625,2.8437 -1.625,1.0625 -0.1875,1.8438 -3.375,0.4062 0.21875,2.5938 1,0.3437 -2.4375,3.4688 -4.375,0.375 -0.21875,3.0937 -1.6875,1.6563 -0.96875,2.5 -4.09375,0.1875 1.6875,6.25 1.71875,3.75 0.0937,0.2187 -3.84375,0.6875 -3.15625,-1.875 -1.53125,5 2.15625,2.3438 -0.90625,3.5 -1.25,1.4375 0.75,2.1875 -3.40625,0.7187 -3.21875,0.8438 0.78125,2.75 -1.03125,0.2812 -0.5,0.1563 -0.15625,0.062 -0.875,0.8125 -2.84375,-2.7813 -6.125,0.5938 -1.5625,2.75 -3.40625,0.375 -3.125,0.5312 -1.46875,-2.0625 -3.1875,3.1875 -2.40625,-2.0312 -1.5625,3.3437 0.15625,2.375 -1.6875,0.4688 -0.84375,-1.1563 -1.09375,-3.3437 -2.9375,2.5312 -1.84375,-0.75 -2.375,0.4375 -2.125,2.5938 2.28125,3.9062 -1.5,1.5 0.59375,3.3438 -1.84375,2.4062 -1.46875,3.9375 1.71875,3 4.78125,0.3438 0.5,0.062 3.09375,5.125 -2.15625,1.9687 3.9375,5.875 -1.84375,2.4063 -3.09375,7 -5.40625,4.5937 1.34375,2.7188 -0.84375,0.5625 -3.125,-0.625 -0.8125,6.625 -1.59375,1.1875 -0.34375,4.75 0.8125,-0.5 3.15625,1.875 3.8125,2.875 0.375,2.3125 3.28125,2.6875 2.6875,0 6.34375,-2.6875 2.625,3.0312 4.03125,1.0625 1.375,-2.2812 1.5,0.6562 3.59375,0.25 8.53125,0.5938 0.40625,-9.5938 2.34375,0.3438 3.59375,2.125 1.4375,0.8125 6.1875,1.1875 2.40625,0 3.3125,4.3125 8.375,-0.4063 3.375,5.3438 3.09375,-1.25 8.28125,1.1562 0.5625,3.0938 0.0937,0.5937 0.3125,1.8438 3,2.8125 5.75,1.5937 0.1875,3.4063 3.34375,2.9375 2.59375,-0.4688 3.34375,-4.0937 3.90625,-0.75 6.3125,2.125 5.65625,4.8437 1.65625,-2.0937 1.125,0 1.4375,1.0312 1.5,-0.7187 0.1875,-2.7188 5.75,-1.3437 1.9375,-2.5313 2.8125,-0.9375 3.90625,0 2.5625,2.7188 3.5625,0.25 0,-3.5625 -1.65625,-2.2813 -2.65625,-1.1562 -0.40625,-16.375 -0.1875,-6.0625 0.25,-6.7813 -2.53125,0.1875 -1.75,-2.5937 1.28125,-2.0625 3.21875,3.0312 3.15625,-2.5312 2.0625,-2 0.21875,-1.9063 0.15625,-1.125 6.96875,-2.1562 0.75,-1.6875 5.4375,-0.1875 1.78125,-2.2188 10.53125,-8.4062 6.5625,-4.625 1.84375,0.125 3.4375,0.25 0,3.9375 4.75,-0.2188 2.625,0.125 1.78125,-4.1562 6.53125,-4 -1.46875,-2.0625 1.53125,-4.0313 5.84375,0.8125 1.40625,-10.6562 7.75,-4.4063 0,-2.8125 -5.8125,-5.7812 0,-4.375 -3.40625,-5.6563 -7.34375,-4.125 -0.5625,3.25 -2.28125,0.2188 -0.84375,-3.0625 -3.25,0.625 -0.5,3.7187 -1.8125,-0.6562 -4.84375,-3.1563 -1.9375,1 0,-5.2187 -3.28125,-1.9688 -0.84375,-0.5 0.5625,-4.0937 -3.34375,-3.625 -1.375,-7.0938 -5.15625,-6.625 -3.53125,0.8438 -0.75,-2.6563 -2.46875,0 -0.375,2.4063 -4.625,1.4375 -3.53125,-9.0313 -5.84375,2.125 -1.46875,3.2813 -3.5625,-2.375 -2.84375,8.9687 -2.625,6.0313 -1.34375,-1.6875 -0.59375,-5.7188 -1.90625,0 -0.875,-5.5625 -3.84375,0.5625 -0.5,-3.3125 -0.78125,-1.25 -5.90625,5.0313 0,4.5312 -1.34375,0 -0.5625,4.5 -1.34375,0.5313 -1.0625,2.4062 -5.71875,0 -0.53125,-0.8125 -3.125,0 -1.65625,2.7188 -0.28125,-0.031 -1.34375,-0.1875 1.0625,-3.2188 -2.46875,-1.0937 2.46875,-5.75 -3.40615,-2.5313 -1.125,-7.25 -3.375,-0.9063 -2.0625,2.0313 -1.09375,-1.9375 -3.53125,3.5 -1.9375,0.25 -3.78125,-5.4063 -5.1875,-2.3125 z"
       inkscape:connector-curvature="0" /><path
       inkscape:export-ydpi="600.04968"
       inkscape:export-xdpi="600.04968"
       inkscape:export-filename="C:\Users\Romain\Desktop\path386.png"
       style="fill-opacity:1;stroke:#000000;stroke-width:0.89999998;stroke-miterlimit:4;stroke-dasharray:none;stroke-opacity:1"
       id="Auvergne-rhone-alpes"
       d="m 363.81655,3389.1988 -2.71875,3.5312 -1.5625,0.1875 -1.59375,1.6563 -1.96875,-2.1563 -5.5625,5.5938 0,3.375 0.96875,0.8125 0.15625,1.25 -2.46875,1.9375 -2.46875,-0.75 -5.0625,1.0312 -2.59375,2.9688 -1.21875,2.625 0.53125,-0.125 2.1875,3.0937 0,2.3438 1.625,2.125 1.34375,-1.6875 1.40625,2.4375 2.125,0.7812 2.09375,4.9063 0.0937,1.5312 0,0.031 0.28125,4.5313 1.59375,1.9375 0.71875,3.4687 -2.28125,1.7188 -0.5625,2.7187 -2.03125,1.0938 -3.90625,2.25 0.4375,2.0625 4.5,4.5 0.375,2.5312 -1.78125,2.9063 0,2.9375 1.21875,1.4062 0.5625,3.1563 -0.4375,1.5625 -0.5625,1.9687 0.96875,2.25 -1,1.1563 -1.65625,0 -1.875,-2.0625 -2.25,-1.2813 -0.21875,5.8125 -3.375,2.0625 -2.71875,3.6875 0.625,3.5625 -0.78125,1.5 -0.90625,2.9375 -1.5,0 -1.8125,2.25 1.34375,1.3438 0.65625,1.6562 -2.5,1.75 1.09375,6.8438 3.21875,2.4062 -2.53125,5.8438 2.53125,1.125 -1.125,3.375 2.75,0.375 1.65625,-2.7813 2.4375,0 0.53125,0.8125 6.46875,0 1.125,-2.5312 1.40625,-0.5938 0.5625,-4.3125 1.40625,0 0,-4.8437 5.1875,-4.4063 0.3125,0.5 0.5625,3.8125 3.90625,-0.5625 0.8125,5.5 1.90625,0 0.53125,5.25 0,0.094 2.09375,2.5938 3.03125,-6.9688 2.625,-8.2187 3.46875,2.3437 1.65625,-3.7187 4.9375,-1.7813 0.125,-0.062 3.53125,9 5.5,-1.6875 0.375,-2.2812 1.46875,0 0.8125,2.7812 3.71875,-0.9062 4.25,5.4375 0.375,0.4687 0.1875,0.2188 1.34375,7.125 0.0312,0.094 3.28125,3.5312 -0.59375,4.1875 4.1875,2.5313 0,5.8437 2.5,-1.2812 4.625,3 2.5625,0.9687 0.53125,-4.0625 2.3125,-0.4375 0.8125,3.0313 3.25,-0.3438 0.5,-2.8437 6.25,3.5312 1.09375,-2.25 2.78125,-0.4062 2.1875,-0.3125 0.96875,1.125 -0.5625,3.9062 1.0625,1.3438 3.0625,-3.0938 2.65625,-0.2187 0.75,-2.0938 -3.46875,-0.4062 -0.5,-3.1875 1.96875,-3.0938 2.46875,-0.1875 2.4375,2.2813 -2.6875,3.6562 0.96875,1.6563 4.1875,0.4375 1.5625,-1.3438 -0.8125,1.7813 0.46875,2.6562 4.3125,0.4063 5.28125,0.375 0.75,2.4375 3.0625,2.2812 2.75,0.1875 1.90625,-1.6875 0.875,-2.5937 1.1875,1.0625 1.625,1.9062 0.875,-8.2187 -2.0625,-0.4063 -1.1875,-2.5312 -6.5625,-1.75 -0.71875,-2.9375 2.5625,-1.6875 -2.1875,-1.5313 0.3125,-1.3125 2.8125,0.1875 2.875,1.4375 2.5,-2.9375 -2.25,-1.8437 0.15625,-2.125 1.125,-3.5313 3.90625,-0.375 3.5,-1.4062 0.3125,-0.6875 0.0625,-0.1875 0.1875,-0.4063 -0.0312,0 0.21875,-0.4687 -1.65625,-0.8438 0,-1.8437 4.6875,0 1.8125,-1.8125 -0.9375,-1.7188 2.1875,-1.7187 1.7813,0.7814 2.5625,-2.1875 4.5,0.8125 1.5625,-1.7813 3.90625,0.1875 0,-4.7812 -1.625,-0.8125 -0.78125,-2.5938 -4.15625,-0.4062 -0.4375,-0.75 0.71875,-3.875 1.21875,-1.0313 3.3125,-0.375 1,1 0.625,2.9375 4,-0.4687 0.40625,-3 1.53125,-0.6875 4.21875,0.2187 -0.15625,-0.3125 5.40625,-2.1562 2.09375,1.3437 2.5,0 0.21875,-2.4687 2.375,-1.2813 1,-1.1875 5.1875,-2 0.65625,-3.5937 -0.96875,-1.5 2.84375,-4.8438 -2.75,-1.0312 -0.75,-2.7188 -5.25,-3.0937 c 0.052,-1.122 0.25825,-5.8853 -0.21875,-7.0313 l 0.375,-0.3125 -0.9375,0 c -0.646,0.162 -2.86675,0.329 -3.46875,0.375 l -2.78125,-3.125 0.0937,-3.375 0.0937,-2.9375 6.59375,-2.75 0.84375,-2.0937 -0.40625,-4.5 -4.53115,-4.7188 -1.125,0.6563 0,-4.375 -3.75,-1.7813 -0.125,-1.2812 2.125,-2.3125 0,-2.9688 -3.53125,-3.7187 -0.1875,-2.6875 -7,0 -4.53125,0.7812 -4.125,3.3438 -1.0625,-1.625 -2.53125,0.2187 -2.03125,4.4688 -0.0312,0.094 0.25,1.9375 1.90625,1.5625 -3.625,2.375 -2.4375,2.2812 -4.28125,0 -0.0312,0 -1.71875,0 0,-3.25 2.15625,-1.25 3.65625,-0.4062 0.28125,-2.375 -1.0625,-0.7188 2.84375,-3.5937 -0.5,-1.4063 -3.65625,-1.9687 -8.1875,9.0312 -5.25,0 0,-2.25 -3.46875,-1.7187 -3.8125,4.1562 -2.5,0.3438 0,-2.5938 -2.625,-1.1875 -3.90625,-5.5 -3.5,-1.3437 -1.15625,-2.5625 -2.25,-0.4688 -2,1.4063 -1.375,0.375 -2.125,-1.7813 -2.4375,0.25 -1.46875,2.75 -3.6875,14.375 -0.53125,1.1875 0,0.031 -0.5625,1.3438 -0.9375,-0.125 -0.71875,-3.75 -1.09375,-3.3438 -2.46875,0.2188 -1.59375,1.5937 -1.15625,-1.5625 -1.8125,1.625 -2.28125,-1.4687 -2.125,0 -0.9375,0.7187 -0.46875,2.5313 -0.65625,3.5937 -2.03125,0 -1.4375,1.4375 -1.0625,-1.0625 -6.34375,-0.9687 -0.0937,-0.031 -2.375,1.4062 -1.25,0 -0.34375,-1.3437 -2.90625,-0.5938 -0.1875,-3.0937 -0.53125,-0.1875 3.84375,-2.9375 0.1875,-7.8438 -1.53125,-2.1562 -3.125,0 -1.15625,-1.5625 -3.3125,0 -0.8125,-1 0,-2.8438 -3.96875,-7.5312 -2.28125,-1.6563 -3.8125,5.25 -1.15625,0.2813 -0.5625,-2.375 -2.1564,-0.9687 -0.8125,1.6562 -2.5,0 -0.4375,-1.9062 -2.3125,1.3437 -1.90625,1.0625 -2.1875,-2.375 -3.28125,-1.5625 -0.1875,-2.5937 -4.9375,-0.4375 z"
       inkscape:connector-curvature="0" /><path
       inkscape:export-ydpi="600.04968"
       inkscape:export-xdpi="600.04968"
       inkscape:export-filename="C:\Users\Romain\Desktop\path386.png"
       style="fill-opacity:1;stroke:#000000;stroke-width:0.89999998;stroke-miterlimit:4;stroke-dasharray:none;stroke-opacity:1"
       id="Centre-val-de-loire"
       d="m 309.50405,3267.23 -1.5,1.25 0,3.0625 -3.90625,1.9375 0,3.0313 -1,1.1875 -4.6875,0 -2.40625,-1 -7.125,3.7187 -2.75,0 -3.1875,3.0313 0.84375,0.5625 0.1875,3.3125 4.125,3.5 0.375,6.9687 -1.78125,2.1875 -2.84375,0.5625 -3.21875,1.9063 0.4375,1.7812 1.34375,1.7813 0,4.8125 0.59375,0.062 2.40625,1.7187 -0.65625,0.8125 -0.21875,0.2813 -0.15625,0.2187 -1.125,1.4063 -1.65625,2.9375 2,1.8437 -0.1875,3.9063 -0.71875,2.5 -2.03125,0 0,3.9062 -2.59375,3.375 -2.9375,1.1563 -1.53125,1.9687 0.46875,1.1875 0.15625,0.375 0.0937,0.25 0.1875,0.375 -5.4375,1.5 -1.25,1.8125 -2.81245,-1.8437 1.3125,4.3125 -1.65625,0 -4.125,-2.9063 -2.1875,4.4063 1.03125,1.25 0,0.9375 -1.96875,2.5625 0.21875,4.2812 -3.0625,3.625 -2.375,8.5 0.40625,0 0.78125,3.0938 3.65625,0.75 0,2.3437 4.6875,1.375 0,3.4688 -0.21875,2.6562 6.25,0 5.375,-1.25 -0.4375,-2.25 1.15625,-0.7187 1.4375,2 1.3125,0.5625 1.15625,4.625 3.34375,3.5 0.375,2.75 3.1875,3.1562 0.3125,0.3125 0,3.5625 -0.84375,2.5 3.875,3.0313 2,2 3.03125,0.4062 1.1875,4.0313 2.03125,1.125 -0.3125,2.5 -1.34375,0.25 0,0.5937 0.59375,0.125 5.03125,0.375 1.65625,-1.625 3.125,3.125 3.9375,-4.5312 1.625,1.0937 2.34375,-0.2187 0.71875,0.375 3.875,0.2187 1.15625,-3.0937 9.5,1.1562 3.78125,0.9688 1.375,-0.1563 0.5,-0.062 0.0937,0 4.53125,-0.5625 1,-2.125 2.4375,-2.7812 4.6875,-0.9688 2.65625,0.8125 2.96875,-2.3437 -0.21875,-1.8438 -0.96875,-0.75 0,-2.875 4.96875,-4.9687 1.96875,2.1562 1.875,-1.9375 1.59375,-0.1875 2.6875,-3.4687 4.09375,0.3437 0.0312,0.8125 0.59375,0.062 1.53125,-4.9062 -0.96875,-1.7813 0.15625,-2.4375 0.625,-5.2187 -2.15625,-2.1563 0.40625,-4.625 -2,-4.125 -0.1875,-2.8125 -3.5625,-2.75 -0.5,-2.125 1.71875,-2.5 0,-3.9062 -1.8125,-2.1563 -0.375,-0.4375 -0.0312,-0.031 -0.125,-0.125 -0.1562,-1.625 3.96875,-1.1563 -0.6875,-2.4375 -0.59375,-3.125 -2.53125,-3.5625 -0.46875,-1.7187 3.59375,0 2.9375,-2.0938 0.40625,-3.1875 -1.625,-1.8437 4.9375,-4.1563 0,-3.8125 -2.59375,-2.75 -0.96875,-3.125 -3.75,-3.5625 -4.71875,2.6563 -0.34375,-1.375 -2.59375,-0.2188 -0.59375,1.625 -1.71875,0.3125 -5.375,-0.1875 -2.03125,1.3125 -1.3125,-1.1562 2.96875,-2.0313 -0.21875,-3.6562 -2.4375,-1.2188 -2,-3 -5.3125,-0.375 -2.28125,-1.875 -2.625,2.4688 -5.0625,0.4375 0.0312,-0.031 -0.53125,0.062 -0.2187,0.031 -0.0625,0.031 -0.40625,-5.0313 -0.40625,-0.5937 -0.40625,-2.6875 -4.1875,-0.8125 -1.65625,-2 -0.59375,-4.4375 -2.34375,-0.375 -0.375,-2.0625 -2.75,-1.9688 -1.3125,-3.125 1.4375,-2.4062 -1.46875,-1.625 0,-1.7813 0.84375,-2.2812 -1.65625,-1.6563 -0.59375,-2.3437 -2.1875,-2.1875 z"
       inkscape:connector-curvature="0" /><path
       inkscape:export-ydpi="600.04968"
       inkscape:export-xdpi="600.04968"
       inkscape:export-filename="C:\Users\Romain\Desktop\path386.png"
       style="fill-opacity:1;stroke:#000000;stroke-width:0.89999998;stroke-miterlimit:4;stroke-dasharray:none;stroke-opacity:1"
       id="Bourgogne-franche-comte"
       d="m 380.7853,3298.5113 -1.84375,1.4062 -7.59375,-0.375 -3.6875,1.8438 -1.5,3.2187 1.53125,1.6875 -4.15625,4.9063 3.6875,3.4687 0.9375,3.0625 2.5625,2.75 0,3.2813 -5.21875,4.375 1.84375,2.0937 -0.34375,2.6563 -2.5625,1.8437 -4.1875,0 0.6875,2.5313 2.53125,3.5312 0.59375,3.0938 0.53125,1.875 -1.96875,0.5625 -1.90625,0.5625 0.21875,2.3125 2.34375,2.7187 0,3.5313 -1.78125,2.5625 0.625,2.5625 3.5,2.7187 0.1875,2.5938 1.96875,4.1562 -0.40625,4.75 2.15625,2.125 -0.59375,4.9688 -0.1875,2.625 0.9375,1.7187 -1.46875,4.6875 0.15625,1.7188 3.4375,1.5937 2.46875,2.7188 2.34375,-1.3125 1.59375,-0.9688 0.375,1.5938 3.34375,0 0.71875,-1.4688 1.34375,0.5938 0.625,2.6875 1.96875,-0.4688 3.625,-4.9375 1.625,1.1563 0.4375,0.8125 3.4375,6.4687 0,2.9688 1.125,1.375 3.3125,0 1.15625,1.5625 3.125,0 1.21875,1.7187 -0.1875,7.375 -4.03125,3.0938 -0.34375,0.7812 0.75,-0.094 0.34375,0.094 0.1875,3.1563 2.96875,0.5937 0.375,1.4375 1.875,0 2.34375,-1.375 6.03125,0.9375 1.34375,1.3438 1.6875,-1.6875 2.28125,0 1.1875,-6.375 0.59375,-0.4688 1.75,0 2.5,1.6563 1.65625,-1.5 1.1875,1.5625 1.9375,-1.9063 1.78125,-0.1562 0.90625,2.8437 0.8125,4.125 1.8125,0.25 1.28125,-3 3.65625,-14.375 1.3125,-2.4062 1.875,-0.1875 2.15625,1.8125 1.71875,-0.4375 1.9375,-1.3438 1.6875,0.3438 1.15625,2.5 1.21875,0.4687 0.0937,0.031 2.21875,0.875 3.90625,5.4688 2.4375,1.0937 0,2.9063 3.40625,-0.4688 3.625,-4 2.75,1.375 0,2.4688 6.09375,0 8.46875,-9.3125 -0.5,-0.2813 0.34375,-3.8125 3.15625,-3.75 -2.125,-0.8437 0.15625,-1.0313 12.03125,-11.2812 0.0937,-0.094 -0.375,-9.3125 4.09375,-2.0313 2.9375,-1.375 2.875,-2.6562 0.21875,-3.6563 2.5625,-1.3125 6.46875,-7.4375 -0.9375,-2.25 1.90625,-0.8437 2.8125,-3.4063 -1.6875,-1.6875 -4.5625,0.9375 -0.0625,-0.3437 4.46875,-5.1563 -0.0312,0 0.4375,-0.5 2.78125,-0.4375 -1.03125,-4.4687 -0.65625,-2.4375 -2.71875,0.4062 -0.3125,-1.9375 0.90625,-1.6875 0.21875,-2.5312 -0.625,-1.5 -3.65625,-2.8438 -3.03125,-0.1875 -0.65625,-1.3125 -0.0937,-0.1875 -6.28125,-3.3125 -1.71875,-1.9375 -1.96875,-1.3125 -1.84375,0.9375 -0.21875,1.1563 -1.375,0.875 -0.75,0 -2.9375,-3.3125 -4.34375,0 -1.75,1.375 -1.375,0.1562 -2.3125,-1.75 0.1875,-2.1562 -1.21875,-0.9688 -4,0.6563 -0.625,2 -1.65625,1.1875 -1.34375,-1.5625 -1.4375,0.875 0.75,1.1562 -1.875,1.1563 0.5625,1.5312 -2.0625,0.75 0,2.4375 -2.71875,0 -0.1875,1.5938 -2.78125,0.625 0.25,2.8437 1.4375,0.1563 -0.6875,0.7812 -0.5625,3.75 -1.5,0 -2.9375,1.1563 -3.125,-1.1875 -3,1.3125 0,1.7812 -0.0625,0 -0.84375,2.0625 -3.875,0.875 -0.3125,-0.7187 -3.34375,-4.1875 -1.875,1.0625 -2.09375,-0.1875 -0.78125,-1.5938 -3.03125,0.1875 -0.1875,-3.1562 -1.59375,-1.0625 2.46875,-2.6563 -4.65625,-6.2812 -3.5,-3.7188 -3.28125,-1.8437 -5.96875,0 -0.4375,2.625 -2.34375,1.2812 -6.09375,0.1875 -0.15625,-0.6875 -0.3125,0.6875 -0.15625,0 0.0625,0.25 -0.875,1.875 -1,-0.1562 -1.21875,-2.2813 -4.09375,2.0625 -7.5625,-0.375 -0.9375,-2.0625 -2.09375,-2.8437 -0.375,-3.5313 -3.375,-4 -2,1.4063 -3.21875,-2.4688 0.59375,-5.25 -5.25,-5.5 -2.375,0 -1.46875,-1.2187 z"
       inkscape:connector-curvature="0" /><path
       inkscape:connector-curvature="0"
       d="m 115.58546,3740.5866 c -0.50594,0.3275 0.71429,0.2382 0,0 z m 68.18364,20.2677 c -1.19045,0.2381 -1.5476,1.0714 -0.0297,0.5356 -0.11905,-0.2083 0.59522,-0.2083 0.0297,-0.5356 z m -72.40977,-21.6962 c -0.0298,0.7441 1.13094,0.2679 0,0 z m 11.84508,-0.7737 c -0.0893,0.4463 -1.3095,2.3511 -0.32737,1.25 0.59523,0.1487 2.64877,-0.089 1.1607,-0.9823 -0.3869,0.059 -0.41667,-0.2083 -0.83333,-0.2677 z m -10.80342,1.1606 c 0.56546,0.8333 -0.0893,0.1191 0,0 z m 70.44551,22.2021 c -0.65476,0.7738 -2.26187,-0.4464 -2.26187,0.6548 0.89284,0.3572 1.90473,0.3572 2.8571,-0.03 0.1488,-0.3572 -0.44643,-0.3869 -0.59523,-0.625 z m -51.63624,-22.9759 c -1.87498,-0.1488 1.22022,0.9525 0,0 z m 64.1956,0.1489 c -0.7738,0.5059 -1.45831,0.6845 -2.26187,1.369 -0.41667,0.2679 -0.74404,0.059 -1.54761,0.6547 -0.7738,0.3275 -0.86307,0.625 -1.57735,0.9525 -0.56548,0.357 -1.22022,0.982 -1.84522,1.0713 -0.80357,-0.5357 -0.95237,0.6845 -1.42855,0.8333 -0.68452,0.2083 -1.33927,-0.2678 -1.57737,0.6845 -0.74403,0.4168 -0.86307,1.9941 -0.23809,2.2619 0.41667,-0.9821 1.7857,-0.7143 2.32141,-1.2202 0.53571,-0.5953 1.87497,-0.4166 2.82734,-0.7441 1.66665,-0.5654 2.55949,-2.2618 4.28566,-2.7975 0.74403,0.059 0.74403,-0.2976 1.36902,-0.1786 0.68452,-0.3273 1.3988,-1.0714 0.68452,-1.3988 -0.17857,-0.5654 -0.44642,-0.8035 -0.53571,-1.488 -0.17856,0.2083 -0.2976,-0.059 -0.47618,0 z m -97.082075,23.3925 c -1.041656,0.744 1.279747,0.5356 0,0 z m 0.952366,-26.0414 c 0,1.8453 1.458309,0.387 0,0 z m 29.761519,19.6724 c -0.80356,1.2798 2.29164,0.6846 0.47618,0.506 -0.20832,0 -0.17857,-0.5357 -0.47618,-0.506 z m -8.42251,49.2255 c -0.35714,1.012 1.90474,1.1609 0,0 z m 1.36903,-5.1189 c -0.62499,1.0715 2.05355,1.1012 0.83332,0.03 -0.17856,0.3571 -0.59523,0.1785 -0.83332,-0.03 z m 1.07142,4.7321 c -1.24999,0.8928 -0.62499,1.1309 0.56546,1.369 1.10118,-0.03 -0.23809,-1.1607 -0.56546,-1.369 z m 2.17259,-5.3273 c -0.26786,2.0833 -0.53571,0.5059 -1.07142,0.6548 -0.65475,0.5952 0.0595,2.0238 -1.13093,1.9345 -0.89285,-0.4167 -1.84522,0.7439 -1.66665,0.982 0.74404,0.625 1.9345,0.2381 2.35116,0 1.04165,-0.03 1.30951,0.4167 0.95237,-0.8333 0.50595,-0.2976 2.35116,-2.0832 1.24998,-1.1011 -0.53571,-0.3869 0.44642,-1.4881 -0.56547,-1.6369 l -0.11904,0 0,0 z m -7.738,1.6964 c -0.3869,1.369 -1.48807,1.0119 -1.5476,2.3214 -0.68451,1.0714 0.89285,1.0714 1.48808,1.5476 1.19046,0.506 1.51784,-1.25 2.11307,-1.8451 0.50594,1.2795 1.10117,-1.012 -0.53571,-0.506 0.65475,-1.3393 -0.83332,-0.7739 -1.33926,-1.3691 l 0,-0.1488 -0.17858,0 0,0 z m 42.61849,-16.7856 c -0.56546,0.6549 -1.01188,1.5775 -1.48807,1.9942 0.11904,1.5475 -2.47021,0.5653 -1.45832,2.5296 0,1.1607 -0.32738,2.1726 -1.54759,2.5298 -1.42856,0.3869 -0.41667,1.875 -0.47619,2.9463 0.0298,1.0715 0.95236,2.2024 0.41666,3.0953 0.65475,0.744 1.04165,1.6963 1.75593,2.4701 1.24999,0.03 2.14283,0.8929 3.39282,1.1012 0.92261,0.4464 1.63688,0.8333 2.76782,0.4464 1.19046,-0.5654 2.8571,-0.357 3.95828,-1.3689 0.92261,-0.625 1.69641,-1.3096 2.38092,-2.1726 1.19046,-0.3275 1.87497,-1.012 2.20236,-2.1726 0.50593,-1.5476 0.50593,-2.9761 -0.29762,-4.4048 -0.47619,-0.9226 -1.75592,-1.1011 -2.11307,-1.8749 -0.74404,-0.8036 -1.24998,-0.7738 -1.45831,-1.9643 -0.0893,-0.5953 -0.41667,-1.2202 -1.19047,-1.6369 -0.5357,0.2679 -0.74403,-0.9821 -1.33926,-0.4464 -0.62499,-0.3274 -1.33927,-1.1309 -2.29165,-1.4881 -1.07141,-0.2678 -0.59522,-0.8333 -1.78568,-0.059 -0.44643,-0.2382 -1.13094,0.059 -1.42856,0.4761 z m -32.11268,-36.5768 c 0.29762,0.4166 -0.0297,0.059 0,0 z m -0.50594,0.7143 c 0.2381,0.059 -0.0297,-0.4762 0,0 z m -5.65469,35.8625 c -0.3869,1.012 -1.04165,0.8037 -1.60712,1.637 -0.53571,0.9523 -0.17857,2.1428 -1.27974,2.2321 -0.74404,-0.3274 -0.56547,1.1905 -1.48808,0.5655 -0.71427,-0.089 -1.51784,-0.4465 -2.11307,0 -0.74403,1.4583 -0.98213,-0.2083 -2.0833,0.6547 -0.3869,1.1011 -1.36903,1.6071 -2.49997,1.5476 -0.83333,0.5357 -2.35116,0.4761 -2.35116,-0.5655 -0.11905,-1.2202 0.14881,-2.9761 -1.10118,-3.7499 -1.1607,-0.5655 -1.84521,-1.7857 -2.73806,-2.7083 -1.69641,-0.9821 -0.47618,-3.3334 -1.87497,-4.4642 -0.32738,-0.8631 -1.60713,-1.5179 -1.75593,-2.5893 -0.47619,-1.0119 0.0595,-2.4107 0.0893,-3.3928 0.26785,-1.0119 -0.92261,-0.5655 -0.47619,-1.6369 -0.41665,-0.506 -0.11904,-0.9821 -0.32737,-1.7857 0.14881,-0.8035 -0.35714,-2.0833 0.50594,-2.5 0.29762,-1.2798 -1.964255,-1.0416 -0.922605,-1.9642 0.505945,-1.0417 0.08928,-2.6488 0.08928,-3.6011 -1.369025,0.03 -0.714275,-1.3095 -0.892842,-2.1428 -1.160699,-1.1905 0.386899,-2.0536 0.119042,-3.3929 -0.386898,-0.8631 -0.327374,-1.875 -1.220223,-2.5595 -0.89284,-0.5059 -1.339265,-1.4881 -1.428548,-2.3809 -0.505948,-0.8333 -0.05951,-1.9642 -0.74404,-2.5 1.071415,-0.3275 0.833323,-1.4286 0.892847,-2.3214 -0.892847,-1.4285 1.666641,-1.875 0.595226,-2.5297 -1.369024,-0.9524 1.101181,-1.0119 1.279748,-1.9047 -0.476183,-1.2798 0.297616,-1.6667 1.249982,-2.3809 -0.327376,-1.2203 1.130943,-0.8333 1.845223,-1.4882 0.77379,-0.3273 1.93449,0.506 2.02378,-0.6844 0.3869,-0.8036 1.22022,0.5357 1.93449,0.3274 0.98213,0.059 0.95238,1.1903 1.66665,1.4285 0,0.3869 0.50595,1.488 1.69641,1.2202 0.80356,0.2083 1.87498,0.3273 2.38092,1.3393 0.53571,-0.059 1.01189,-0.6845 1.63689,0.5952 0.68451,-0.089 0.83332,0.3274 1.60712,0.2976 0.62499,-0.4762 2.88686,0.089 1.84521,0.8036 0.32738,0.744 1.45832,0.863 2.20236,1.2202 0.68451,0.9226 2.41067,-0.8334 3.18447,0.2083 -0.86308,0.625 -1.27974,1.5178 -1.6964,2.4999 -1.10117,0.6847 -0.17857,-2.3808 -0.62499,-0.4463 -1.60712,0.6546 -0.32738,1.8154 0.86308,0.9821 0.3869,0.2679 -0.68452,2.0834 0.80356,1.2201 0.71428,-0.6844 1.01189,-2.4701 1.22022,-0.8629 -0.74404,0.7736 -0.0595,1.5475 0.86309,1.1309 0.62499,-0.5059 1.39879,-1.1608 1.1607,-1.9642 0.5357,-0.8036 1.01189,0.7736 1.75592,-0.4763 0.71428,0.4166 1.22023,-0.4762 1.60713,0.7441 -0.44642,0.119 -1.36904,0.4166 -0.20834,0.8035 0.71429,-1.6369 1.04166,1.1309 0.8631,1.8749 -0.59524,0.9227 -0.14881,1.7263 -0.20834,2.8571 0.29761,0.8037 1.39878,0.4167 0.62499,1.4585 -0.68451,0.5356 0.0298,0.9225 -1.22022,0.2975 0.41666,-0.4167 -0.68451,-2.1726 -0.9226,-0.9226 -0.74405,-0.8035 -1.7857,-0.5952 -2.52974,-0.5654 -0.1488,0.8035 -1.22022,2.1725 -0.41666,2.6488 -0.62499,0.9523 0.95237,1.5475 -0.35714,2.3213 -0.38689,0.9227 0.0893,2.2917 1.04165,2.3513 0.2381,1.0118 -1.10117,1.6666 -0.20832,2.7677 1.22022,0.6845 0.3869,1.5178 0.92261,2.4703 0.80355,0.3868 2.61901,0.9821 1.07141,1.7856 -1.24999,0.7738 0.0596,2.1429 0.35713,2.619 0.71429,1.1012 0.3869,2.5595 0.44643,3.8988 -0.625,1.0714 0.62499,2.3213 0.35714,2.8868 -0.47618,0.7738 -1.04165,1.6666 -1.10117,2.6488 -0.35715,0.9821 -1.24999,1.369 -1.96427,2.1429 -0.68451,0.6845 -1.3095,1.0417 -1.96426,1.6963 0,0.3572 -0.32738,0.1489 -0.47618,0.2976 z m 5.83326,-37.3507 c 0.59523,-0.1784 1.5476,-0.6547 0.86308,-1.5773 0.32738,-0.8928 0.86309,0.238 1.27975,-1.3691 0.50594,-0.7142 0.29762,-1.3391 0.3869,-2.2023 -0.17858,-0.9523 0.7738,-1.369 1.19045,-1.875 0.0298,-1.0713 2.11308,0.7739 2.1726,-0.4464 -0.0595,-0.238 -0.41666,-0.863 1.01189,-0.8035 0.625,-0.1787 0.20833,-0.8037 -0.26786,-1.5774 0.65476,-0.2975 0.77381,-1.4285 0.44644,-2.113 -0.625,-1.1608 -1.10119,-0.6846 -1.63689,-0.8631 -0.86308,-0.7441 -2.44045,-0.7441 -2.23212,-2.262 -0.50594,-1.0713 -0.71427,-1.8749 -0.77379,-3.0058 -0.29762,-1.0715 -1.22024,-1.2202 -0.35715,-2.1725 0.14881,-1.1906 0.65476,-2.1132 1.7857,-2.5002 0.17856,-1.5178 2.23211,-0.5951 2.17259,-2.0237 0.50594,-0.9821 1.60711,-1.0119 2.52972,-1.7262 0.86309,-0.6844 0.86309,-1.8749 1.75593,-2.2619 0.44643,-0.119 1.3095,-0.9523 0.71427,0.4763 0.68452,0.3869 0.41668,1.0119 1.54762,0.9523 0.95235,-0.4464 1.54759,0.5357 1.48807,1.131 0.95237,0.119 1.27974,1.0118 1.90473,1.4583 0.50595,0.625 1.1607,1.0119 1.78569,1.2798 0.41667,0.9225 0.35714,1.8749 0.68452,2.5892 0.29761,0.5059 0.68451,1.5178 0.92261,2.2619 0.23809,1.0714 -0.14881,1.9642 -0.26786,2.6487 -0.50595,0.7738 -0.5357,1.5774 -0.50595,2.5 -0.26785,0.9821 0.38691,2.0535 0.77381,2.8274 0.56547,0.8928 1.07141,1.9047 1.90473,2.7082 0.2381,1.0417 1.9345,1.0715 1.96426,1.9048 0.53571,-1.0416 1.7857,0.8928 2.49997,-0.1191 0.74404,1.3988 1.22022,-0.089 2.58925,0.387 0.86309,0.744 2.32141,-0.4167 2.73806,0.9523 1.04166,-0.7142 1.19048,0.7738 2.35116,0.5358 0.80356,0.7142 1.33927,0.9821 2.17259,1.3094 0.0595,1.0119 1.27976,0.6845 1.5476,1.875 0.17858,0.625 1.19047,1.5477 1.33927,2.4999 0.625,1.1608 1.99403,1.6666 3.27377,1.9643 0.35713,0.6249 2.14283,1.5774 2.47021,0.7739 0.53571,0.5356 1.75593,0.059 2.29163,1.0416 0.625,0.1488 1.3988,0.1785 0.65477,0.8928 -0.59523,-0.1785 -1.66665,-1.1011 -2.38093,-0.9524 -1.24998,0.1786 -2.55949,-0.3571 -3.69044,-0.5059 -1.10117,0.1786 -2.55948,-0.3571 -3.6309,-0.2976 -0.95237,-0.089 -1.84521,1.1309 -2.8571,0.5655 -1.10119,0.2976 -1.84522,1.1904 -3.18448,0.9523 -0.92262,0.3869 -2.67854,0.4464 -2.76783,0.2679 -0.44642,0.2679 -1.60712,-0.2976 -1.90474,0.2679 -0.95236,0.03 -1.84521,0.8333 -2.88686,0.6547 -1.07142,0.1191 -1.3988,1.1309 -2.23212,1.6369 -1.36903,-0.8334 -1.57735,0.7738 -2.49997,0.4761 -0.71427,0.3572 -1.27974,1.2203 -2.20235,0.893 -0.62499,0.4761 -0.71428,0.4761 -1.36903,0.1785 -1.30951,-0.1489 -1.57736,0.8333 -2.52973,1.2201 -0.98213,-0.119 -1.27974,0.059 -2.05354,0.4763 -0.68452,-0.387 -1.5476,-0.506 -2.35116,-0.8631 -0.92261,-0.4762 -3.36305,0.3274 -2.91662,-1.3393 -0.80357,-0.8333 -1.81546,0.7441 -2.52974,-0.3868 -1.07141,-0.2679 0.0595,-0.7739 -0.62498,-1.0715 0.17856,-1.2798 -0.89286,-1.2202 -1.07142,-2.2916 -1.0119,-0.8928 -0.80357,-1.2798 -0.625,-2.2321 -0.1488,-1.0417 -0.0596,-2.0834 -0.35714,-3.006 0.83332,-0.2677 -1.27974,-0.089 -0.50594,-0.7143 z"
       id="Guadeloupe" /><path
       inkscape:connector-curvature="0"
       d="m 468.13564,3763.4435 c 1.3095,-0.9226 2.64878,-1.8154 3.95829,-2.7381 0.29761,-1.2797 0.20833,-2.6487 0.71428,-3.8987 0.44642,-1.2798 -1.0119,-2.1726 -0.80356,-3.4225 -0.41667,-1.9644 -1.04166,-3.8393 -1.60713,-5.7738 -0.83331,-0.4761 -1.87497,-0.8036 -2.55949,-1.3988 -0.32738,-0.6845 -0.17857,-1.7857 -1.10117,-1.9345 -0.98214,-0.4464 -1.96427,-0.8929 -2.9464,-1.3392 -0.44641,1.1011 -0.0595,2.3809 -0.32738,3.4522 -0.62499,0.9227 -1.27974,0.059 -1.30951,-0.7143 -0.5357,-1.5178 -0.9226,-3.1546 -1.57735,-4.5832 -1.10118,-0.9821 -2.67854,-1.2202 -3.77971,-2.1131 -0.53572,-0.5058 -0.26786,-1.6368 -1.24998,-1.6666 -0.47619,0.03 -1.99403,0.8333 -1.60713,-0.059 0.74403,-0.4761 1.04166,-1.2202 0.0298,-1.4285 -0.50594,-0.4167 -0.35714,-1.8751 -1.1607,-1.5476 -0.80356,0.03 -0.77379,1.9345 -1.3988,1.1012 -0.26785,-1.3096 -1.57736,-1.9643 -2.35115,-2.9465 -0.92261,-0.7737 -1.78569,-1.6963 -2.82735,-2.2618 -0.83333,-0.1191 -1.48807,-0.5059 -1.9345,-1.2499 -0.47618,-0.6548 -0.71427,-1.3691 -1.60712,-1.637 -1.69641,-1.1309 -3.42258,-2.232 -5.20826,-3.2737 -0.0595,-0.8632 -0.53571,-1.5178 -1.19047,-2.0536 -1.81545,-1.8452 -3.6309,-3.6904 -5.44636,-5.5356 -0.47618,0.119 -2.38092,-0.2678 -1.75592,0.238 1.19045,0.7739 -0.50596,0.1489 -1.04166,0.1192 -0.86308,-0.1488 -1.72617,-0.5359 -2.55949,-0.506 -0.80356,0.2975 -1.48807,1.3393 -2.38092,0.8333 -1.19047,-0.3572 -2.38092,-0.8928 -3.60114,-1.1309 -0.89285,0.1488 -1.81546,0.2677 -2.7083,0.4166 -0.41667,-0.8035 -0.98214,-1.4881 -1.90474,-1.6368 -3.00592,-1.1608 -6.01183,-2.4406 -9.01773,-3.5119 -0.8631,-0.1192 -1.93451,0.3571 -2.44046,-0.5655 -0.32738,-0.2084 -2.35116,-0.2679 -1.60712,0.059 1.36903,0.6251 -0.0595,0.4465 -0.80357,0.4465 -0.41666,0.2678 0.14881,1.3988 0.0298,2.0535 0.14881,0.8333 -0.5357,1.369 0.0595,1.9642 0.0893,1.2798 -1.48807,1.7262 -1.81545,2.8571 -0.98214,1.0417 -1.9345,2.2024 -2.08331,3.6904 -0.11905,0.8928 -1.24999,1.131 -1.84522,1.6965 -0.9226,0.6548 -1.90473,1.2499 -2.49996,2.2619 -1.36903,1.7857 -3.12497,3.3333 -4.13686,5.3272 -0.44642,1.6667 -0.95236,3.3333 -1.45831,4.9702 0,1.637 0,3.2738 0,4.9107 0.71428,0.3869 1.60713,0.6547 1.45831,1.6368 0.11905,0.8632 0.38691,1.6668 0.59524,2.5 0,0.6548 -0.50595,1.3691 -0.98213,1.9643 -0.44643,0.7143 0.11904,1.3988 0.0595,2.1429 0.0893,0.9225 0.17857,1.8154 0.11905,2.7975 0.11904,0.5357 1.66664,0.2976 1.51784,1.2797 -0.20834,1.3095 0.0297,2.6786 -0.50595,3.9286 -0.32738,0.8035 1.01189,1.0417 1.45831,1.5774 1.04166,0.357 0.65475,1.1607 0.32738,1.9345 -0.56547,0.8333 -0.11905,1.3988 0.56546,1.9345 1.0119,0.8035 0.2381,2.4701 1.24999,3.3333 0.7738,0.8333 1.87499,1.3987 2.58925,2.2619 -0.0595,1.1011 0.83333,1.0416 1.66665,1.0713 0.83333,0 0.83333,1.1013 1.19047,1.5179 0.74403,1.2202 1.48807,2.4702 2.2321,3.6904 0.83333,-0.9821 1.10117,-0.1191 1.33927,0.7738 0.41667,0.744 -0.95236,1.1012 -0.47619,2.0239 0.11906,0.8333 -0.17856,1.4879 -0.17856,2.2618 -0.0893,0.7737 0.32738,1.7856 -0.65475,2.0832 -0.83333,0.2382 -0.80356,1.1905 -0.53571,1.7858 0.23808,0.9523 -0.23809,1.5178 -1.07142,1.9048 -1.04165,0.8034 -2.26187,1.4582 -3.18448,2.3511 -0.32738,0.7737 -0.32738,1.5773 -0.29761,2.3809 1.10118,0.06 0.68452,1.131 0.71428,1.875 0.1488,0.6548 -0.35714,1.9344 0.20833,2.1725 0,1.5774 0,3.1548 0,4.7619 -1.0119,1.4583 -1.63689,3.1844 -2.64879,4.6726 -1.39878,2.2916 -2.55948,4.7022 -3.80947,7.0831 -0.65474,0.1787 -1.9345,-0.2976 -2.17259,0.2977 -0.23809,0.6845 -0.50594,1.3095 -0.7738,2.0238 0.0595,1.2202 -1.04166,0.3572 -1.66664,0.3572 -0.98214,-0.387 -1.57737,0.7143 -0.26785,0.5654 1.10117,-0.2679 1.04165,0.8036 1.27974,1.5774 0,0.9226 0.71428,1.3689 1.42855,1.8154 0.59523,0.625 1.36903,0.6845 2.20236,0.625 0.80356,0 1.6964,-0.2083 1.87497,0.8036 0.17858,1.0417 1.19047,0.625 1.93449,0.6845 0.74404,-0.1191 1.51785,0.5058 2.14283,-0.1786 0.68453,-0.9822 1.16071,-0.059 1.6369,0.5654 0.41666,0.8631 1.51783,0.3572 2.32139,0.4763 0.38689,-0.7739 0.74404,-1.5476 1.13094,-2.3512 0.56547,1.0714 1.19046,-0.2083 1.81546,-0.5952 1.10117,-0.9226 2.0833,-1.9941 3.12495,-3.0059 0.65475,-0.1787 1.9345,0.4464 2.02379,-0.506 0.0595,-1.0416 0.74404,-1.2203 1.63688,-1.0416 1.13094,-0.2679 0.44643,1.1012 0.35714,1.6964 1.13094,0.2678 2.26188,0.8035 3.39282,0.9225 0.71427,-0.7141 1.39879,0.03 2.11307,0.387 1.0714,0.4464 2.32138,-0.059 3.45232,-0.059 0.74405,-0.1489 1.72618,0.089 2.02378,-0.8037 0.53572,-0.4463 0.83333,-1.6963 1.51785,-1.6368 0.89285,0.2083 1.3988,0.7142 1.3095,1.6666 0.44642,0.506 1.3988,0.6845 2.02379,1.0417 0.1488,0.4761 -1.36902,0.9226 -0.95237,1.6964 0,0.9226 1.36903,0.03 1.96426,0.119 1.07142,-0.119 2.17259,-0.6547 3.12496,0.06 0.89285,0.4168 1.78569,0.9227 2.79758,0.7441 0.95238,0 1.93451,0 2.88686,0 0.80357,-1.131 1.51785,-2.3809 2.38093,-3.4524 1.81546,-1.0118 3.72019,-1.9344 5.47612,-3.0356 0.95237,-1.3988 2.08331,-2.738 2.91663,-4.1665 0.0595,-1.3393 -0.14881,-2.7382 0.11905,-4.0179 1.10118,-2.4405 2.20235,-4.8511 3.33329,-7.2915 0.86308,0.1486 1.78569,-0.03 1.07142,-1.0417 0.50594,-1.3989 1.10117,-2.7977 1.63687,-4.2262 -0.23808,-0.744 -0.89284,-1.4583 -0.35712,-2.2024 0.50593,-1.3392 1.57735,-2.3809 2.32139,-3.5712 1.01189,0.3273 1.27975,-0.506 1.60712,-1.2799 1.66664,-3.6011 3.66067,-6.9939 5.29755,-10.5951 0.26786,-0.7737 0.56548,-1.5476 0.83333,-2.3213 0.6845,-0.089 2.05353,0.3869 1.42855,-0.7739 -0.29761,-0.8035 0.11905,-1.4583 0.7738,-1.9345 0.68451,-0.6547 1.42855,-1.2797 1.66664,-2.232 0.56547,-0.6846 1.42856,-1.25 1.84522,-1.9643 0.29761,-0.4763 -0.44643,-0.625 -0.11905,-1.012 z"
       id="Guyane" /><path
       inkscape:connector-curvature="0"
       d="m 273.91194,3804.9014 -0.32738,0.3571 0.32738,-0.3571 0,0 z m 44.22562,7.4999 c 0.92261,0.3571 0.11905,-0.5358 0,0 z m -10.98199,-10.9226 c -0.26786,0.4167 -0.20833,-0.4761 0,0 z m -8.24394,-68.3622 c -0.35714,0 0.32737,-0.238 0,0 z m 10.98199,-2.4701 c -0.14881,0.238 -0.26784,-0.3572 0,0 z m -13.42245,9.8808 c 0.86309,-0.2977 -0.0893,0.7143 0,0 z m 11.69629,10.4463 c -0.0595,0.3869 -0.3869,-0.2381 0,0 z m -0.0298,2.3808 c -0.17856,0.3572 -0.17856,-0.4463 0,0 z m 0.14881,-29.7912 c -0.44642,0.3273 0.17857,-0.4464 0,0 z m 6.81538,27.946 c 0.11905,0.6548 -0.56546,-0.5952 0,0 z m -82.3204,-35.7733 c -0.17856,0.2381 -0.0298,-0.2975 0,0 z m 0.68452,0.4167 -0.0595,0 0.0595,0 z m 34.94004,-0.9822 -0.0595,0.03 0.0595,-0.03 z m 35.59477,35.9818 c 0.2381,-0.2084 0.0893,0.3273 0,0 z m -38.95784,31.4876 c -1.16069,-0.1785 0.95238,-0.7737 0,0 z m 9.43442,-0.1488 c 0.29761,0.089 -0.0298,-0.2679 0,0 z m -0.44642,0.1488 c -0.0595,0.2679 -0.17858,-0.1785 0,0 z m 7.35109,-1.5178 c 0.29762,-0.4763 -0.62499,0.089 0,0 z m -3.18449,-0.1488 c -2.82734,0.7739 1.72618,1.2797 0,0 z m -18.45214,-9.256 c -0.0893,1.012 1.22022,-0.2975 0,0 z m 30.11867,-40.7732 c -0.26787,1.1905 1.19045,0.2083 0,0 z m -5.6547,-3.2439 c 0.0595,1.3689 1.51784,-0.2084 0,0 z m 23.12471,26.2198 c -0.32737,1.0715 1.3095,0.03 0,0 z m -0.11905,-3.988 c -0.29761,1.7857 1.24999,0.357 0,0 z m -3.80947,0.4168 c -0.29762,1.4582 1.63688,-0.2681 0,0 z m -1.72617,-0.1192 c -1.33927,1.3095 1.04166,0.8333 0,0 z m 2.52973,-1.994 c 0.62499,2.7381 6.39873,0.4464 1.66665,0.1785 l -0.83333,0.03 -0.83332,-0.2083 0,0 z m 7.3511,19.9997 c -0.80356,1.2203 1.3095,0.1786 0,0 z m 2.52972,-1.6368 c -4.07733,1.0713 2.29164,2.2618 0,0 z m 1.07142,-2.9762 c -1.81546,1.4286 1.39878,1.25 0,0 z m -1.19046,-0.3274 c -1.66665,1.5774 1.30951,0.6845 0,0 z m -1.33927,1.637 c -2.94639,0.6844 0.44642,1.8154 0,0 z m -6.42849,-2.9168 c -1.07142,2.5596 2.73806,0.2382 0,0 z m 11.607,14.494 c -2.5595,0.8928 1.19045,1.3988 0,0 z m -7.17253,39.8209 c -0.89285,1.9345 1.57736,0.5952 0,0 z m 8.06536,-5.8928 c -1.54759,1.1012 1.07142,0.744 0,0 l 0,0 z m 0.625,-2.8571 c -1.36903,1.5773 2.55949,0.089 0,0 z m -37.29119,-8.5416 c 2.47021,2.9166 1.81546,-2.7975 3.09521,-0.8631 1.84521,-4.0178 1.51783,3.6012 3.7797,0.4167 3.77973,2.1428 8.1249,2.1428 11.96414,0.9821 0.5357,3.2142 4.34518,5.8333 5.68445,1.5477 1.48808,-1.4882 2.38092,-2.2024 2.91663,-1.3096 1.84522,-1.2797 -0.50596,1.875 1.78569,0.2679 0.80356,2.5297 -2.35116,1.9643 -2.55949,3.6309 -3.03567,-1.131 0.71428,4.2261 -2.4702,5.357 -1.30952,2.7976 2.82734,7.9463 6.75586,6.3691 -0.0298,-2.1132 4.55351,-3.5417 3.54162,-4.2858 -2.23212,-1.6963 -1.27975,-2.9463 0.9226,-1.4285 2.20236,-2.5 3.5714,-8.4821 5.62494,-8.5713 -1.63689,-0.9821 -3.24402,-3.8392 -0.74405,-3.0059 2.38092,-3.6607 -3.89875,-4.7917 -1.8452,-8.5713 -3.77972,0.8334 -2.76783,-2.3809 -0.14881,-2.9167 0.98213,-2.4701 -4.28567,-1.3393 -0.625,-2.6785 -2.14283,-2.3214 -2.91663,-3.4523 -0.7738,-6.1905 1.27975,-2.6189 -4.97017,3.5715 -2.3214,-0.4166 -3.15471,1.9048 0.86309,-2.5893 -2.05354,-0.5655 -2.58925,-1.5178 3.92852,-2.3213 -0.29761,-2.4701 2.02378,-1.2798 -0.47619,-3.8393 -2.20236,-2.2619 -3.51186,-0.1489 -0.26786,-3.7798 -3.4821,-4.9703 4.76184,-3.1546 -8.36298,0.4466 -3.0952,-4.107 -1.16069,-2.0535 2.26188,-2.7678 -1.01189,-2.7678 -4.70232,-1.6072 6.45825,-1.8155 2.20236,-5.1785 -2.08331,2.7976 -3.95828,-1.6071 -6.48802,0.9226 -3.09519,5.7142 -8.42251,-6.488 -1.9345,-3.6607 -2.38092,-3.4225 6.45825,-1.5179 5.0297,-5.3869 -3.57139,2.5297 -1.48808,-5.0594 -4.76185,-1.5177 -4.13684,1.3392 2.02379,-4.6726 -1.93449,-2.1132 -1.42855,1.6965 -3.60115,-3.2439 -0.89285,-3.4522 -4.10709,-3.1845 5.35708,-5.2381 6.01183,-0.6846 1.48808,1.4285 6.5773,0.2977 2.73806,-1.9346 3.77971,-0.9819 -2.29164,-4.732 2.47021,-4.5832 1.5476,0.7143 1.84521,4.494 2.61902,0.4167 0.71427,-4.2559 -4.46424,-3.1547 -6.19041,-0.6845 -2.67854,-0.119 -3.24401,2.9166 -6.39872,1.3988 -3.77972,-0.5953 -4.16661,6.5774 -6.63682,4.6131 -0.86309,-4.0179 -3.45235,-7.6488 -5.92255,-9.1072 -3.74995,-1.3094 -1.13094,-8.0355 -5.59516,-5.9225 -1.63689,-4.1963 -4.82138,-6.6962 -9.01774,-6.1309 -4.2559,-2.7082 -8.33324,-6.1011 -13.12484,-7.976 -4.58328,-1.9345 -10.5951,-2.5298 -14.851,0.3274 -4.97017,1.1905 -7.73799,5.4761 -9.13679,10.1785 -0.89285,5.8034 3.69044,9.2856 7.08326,12.9164 3.30352,2.7678 5.35706,6.3689 2.76781,10.5356 -1.57736,6.0415 4.73208,10.1189 6.39873,15.3867 2.94639,3.0059 6.27969,4.5833 9.97011,6.6071 1.96427,3.3332 3.95828,5.7142 7.61895,4.851 2.32139,-0.8035 2.8571,2.5596 4.52376,0.7441 0.38689,2.5297 1.63688,-0.2678 2.91662,0.4167 -2.02378,-3.75 6.07135,-4.7916 2.73805,-1.0714 3.66067,-0.03 -2.52972,3.7499 2.0238,4.1368 0.29761,1.2202 1.33926,0.8334 0.71427,3.3928 1.39879,1.637 5.83326,1.6072 3.0952,3.6905 1.04165,0.7737 -4.22614,3.8095 -4.88089,2.1725 -1.66664,1.2799 -3.95829,-0.7143 -4.6428,-1.5476 2.91663,-2.4106 -0.26784,-1.7856 -1.78569,-1.6963 0.68452,-2.8572 -1.66664,-0.8929 -1.22022,0.4761 -2.3214,3.006 -6.33921,1.9345 -7.82728,5.9523 -1.90474,1.8751 -2.41069,5 1.3095,4.375 1.63689,1.6071 -2.82735,2.5 0.89285,3.6606 1.48807,1.2798 -1.60712,5.2083 2.20235,5.119 2.44044,4.4346 5.68445,2.262 6.66658,-1.4286 2.20236,-2.7974 5.59516,-0.8333 7.41062,-0.1487 0.74404,-1.8452 1.19046,-0.7738 1.39879,0.744 z"
       id="Martinique" /><path
       inkscape:connector-curvature="0"
       d="m 582.59846,3752.3127 c -0.20833,0.8631 0.77381,1.2499 1.19047,1.8453 1.54759,1.5773 2.58924,3.5415 3.89875,5.2974 1.07142,1.3989 2.3214,2.6192 3.45234,3.9584 1.24999,0.4166 2.61902,0.5952 3.77971,1.1607 1.10118,0.744 2.20235,1.488 3.30353,2.2023 0.53571,1.7858 1.1607,3.5417 1.63689,5.3273 0.26785,0.9227 -0.83333,0.8929 -1.42855,1.2202 -0.86309,0.1489 -0.68453,1.2203 -1.0119,1.8749 -0.89284,3.1846 -2.05355,6.2797 -3.15472,9.4048 0.41667,4.9702 0.92261,9.9403 1.24998,14.8808 -0.0893,0.6547 -0.92261,1.0118 -1.30951,1.5773 -1.33926,1.3393 -2.70829,2.6785 -4.04756,4.0177 -4.94041,0.4466 -9.88083,0.8632 -14.82124,1.3096 -0.3869,0.7143 -0.77379,1.4583 -1.1607,2.1725 -3.66067,0.089 -7.32133,0.2083 -10.98201,0.2977 -0.89284,-0.6845 -1.72615,-1.5476 -2.67853,-2.1429 -2.49997,-0.2083 -5.02969,-0.3273 -7.4999,-0.5654 -4.2559,-1.6368 -8.5118,-3.3631 -12.79746,-4.9107 -0.86308,0.2381 -1.13094,-0.5952 -1.57735,-1.1308 -0.38691,-0.893 -1.45832,-0.7143 -2.23213,-1.012 -1.22022,-0.3273 -2.55948,-0.4761 -3.69042,-0.9523 -0.7738,-1.131 -1.45832,-2.3809 -2.29163,-3.4524 -1.24999,-0.6844 -2.41069,-1.5477 -3.74996,-2.0833 -2.23212,-0.625 -4.46422,-1.25 -6.72611,-1.8749 -0.62498,-1.0715 -1.27973,-2.1428 -1.48807,-3.3928 -0.0893,-0.9227 -1.07141,-1.3096 -1.69641,-1.8453 -1.3095,-0.7738 -2.61901,-1.5476 -3.95827,-2.3512 -0.53572,-1.488 -0.89286,-3.0952 -1.51785,-4.5535 -0.68451,-0.5654 -0.5357,-1.1904 -0.0595,-1.8452 0.29761,-0.744 0.86309,-1.4583 1.01189,-2.2023 -0.41667,-1.3989 -0.83332,-2.8275 -1.24998,-4.2261 -0.68452,-0.6251 -1.75594,-0.9823 -1.84522,-2.0239 -0.65475,-1.7856 -1.63689,-3.4225 -2.41068,-5.1487 -1.87498,-1.9643 -3.74995,-3.8988 -5.62494,-5.863 0.0298,-1.4285 0.0595,-2.8571 0.0893,-4.2856 -0.26784,-0.5655 -1.19046,-1.0715 -1.04165,-1.6667 0.35713,-0.8928 0.89285,-1.6369 1.63688,-2.2321 0.56547,-0.4762 1.04166,-1.1608 1.66665,-1.4881 0.74404,-0.03 1.54759,0.1489 2.23211,-0.03 1.10118,-0.9523 2.35117,-1.7856 3.36306,-2.8273 0.68451,-0.9226 1.10117,-1.9642 1.33926,-3.0952 0.20834,-0.6845 0.53571,-1.3691 0.0893,-2.0238 -0.20833,-0.8333 -0.74405,-1.6666 -0.74405,-2.5 0.44644,-1.9047 0.89286,-3.8095 1.36903,-5.7142 1.66666,0.3572 3.3333,0.6846 4.99994,1.0417 2.9464,-2.1131 5.95231,-4.1071 8.83918,-6.3095 1.24998,-1.131 2.32139,-2.4999 3.89875,-3.1844 1.10119,-0.506 2.38093,-0.4762 3.54163,-0.7441 1.5476,-0.2679 3.12496,-0.2084 4.67256,-0.4167 0.80355,0.6846 1.5476,1.5774 2.41068,2.1131 2.73806,0.119 5.44636,-0.03 8.18442,0.089 1.33927,0.03 2.49997,0.7142 3.72019,1.1309 3.42257,0.2381 6.81539,0.4763 10.23796,0.7143 0.65475,0.6547 1.19047,1.5178 1.90474,2.0535 1.90474,0.2977 3.83924,0.5953 5.74397,0.8631 1.99403,2.0834 4.07733,4.0773 5.8035,6.4285 0.65476,0.7441 1.5476,1.4286 2.08332,2.2321 -0.0595,2.1428 -0.14882,4.2856 -0.20835,6.4583 0.89285,1.4285 1.48808,3.0356 2.7976,4.1369 0.95236,1.0713 2.11306,2.0534 2.94637,3.1546"
       id="La-reunion" /></g></svg>